<?xml version="1.0" encoding="utf-8"?>
<!-- Generator: Adobe Illustrator 16.0.4, SVG Export Plug-In . SVG Version: 6.00 Build 0)  -->
<!DOCTYPE svg PUBLIC "-//W3C//DTD SVG 1.1//EN" "http://www.w3.org/Graphics/SVG/1.1/DTD/svg11.dtd">
<svg version="1.1" id="Layer_1" xmlns="http://www.w3.org/2000/svg" xmlns:xlink="http://www.w3.org/1999/xlink" x="0px" y="0px"
	 width="10000px" height="4500px" viewBox="0 0 10000 4500" enable-background="new 0 0 10000 4500" xml:space="preserve">
<path fill="#ABABAB" d="M1282.531,1626.022c-0.003-0.081-0.012-0.162-0.029-0.242c-0.008-0.038-0.019-0.073-0.029-0.11
	c-0.02-0.067-0.044-0.133-0.074-0.198c-0.018-0.04-0.036-0.078-0.057-0.115c-0.012-0.022-0.02-0.046-0.034-0.068
	c-0.024-0.038-0.055-0.069-0.081-0.104c-0.025-0.033-0.048-0.066-0.075-0.097c-0.061-0.067-0.126-0.126-0.196-0.181
	c-0.014-0.01-0.023-0.024-0.038-0.035l-0.019-0.014c-0.002-0.001-0.003-0.002-0.005-0.003l-169.969-123.129
	c-0.496-0.359-1.161-0.38-1.679-0.055l-63.618,40.046l-28.948-20.97l84.874-53.427c0.238,0.158,0.522,0.251,0.83,0.251
	c0.829,0,1.5-0.671,1.5-1.5v-1.046c0-0.022-0.007-0.043-0.008-0.065c-0.003-0.081-0.012-0.162-0.029-0.242
	c-0.008-0.038-0.019-0.073-0.03-0.11c-0.02-0.067-0.043-0.133-0.073-0.197c-0.018-0.04-0.037-0.078-0.058-0.116
	c-0.012-0.022-0.02-0.046-0.034-0.067c-0.024-0.038-0.055-0.069-0.081-0.104c-0.025-0.033-0.048-0.066-0.075-0.097
	c-0.061-0.067-0.126-0.126-0.195-0.18c-0.014-0.011-0.024-0.025-0.038-0.035l-0.019-0.014c-0.001-0.001-0.002-0.002-0.003-0.003
	l-124.758-90.379c-0.496-0.359-1.16-0.381-1.679-0.055l-87.797,55.267l21.011,18.046v0.509l44.871,32.506l-232.029,146.056
	c-0.019,0.012-0.032,0.029-0.05,0.041c-0.073,0.05-0.14,0.105-0.201,0.167c-0.026,0.025-0.05,0.051-0.074,0.078
	c-0.057,0.065-0.106,0.135-0.151,0.208c-0.015,0.024-0.032,0.047-0.046,0.073c-0.053,0.1-0.095,0.205-0.125,0.314
	c-0.006,0.021-0.007,0.042-0.011,0.062c-0.021,0.092-0.033,0.185-0.036,0.28c0,0.016-0.006,0.031-0.006,0.047v1.047
	c0,0.524,0.27,0.984,0.676,1.252l20.125,61.259v0.806c0,0.829,0.672,1.5,1.5,1.5s1.5-0.671,1.5-1.5v-0.218l204.75-128.885
	c0.238,0.158,0.523,0.25,0.831,0.25c0.256,0,0.494-0.07,0.705-0.184l28.185,20.417l-58.544,36.853c-0.001,0-0.002,0.001-0.003,0.002
	l-0.021,0.013c-0.012,0.008-0.021,0.019-0.033,0.027c-0.08,0.054-0.155,0.115-0.225,0.186c-0.028,0.027-0.052,0.058-0.078,0.087
	c-0.026,0.03-0.056,0.056-0.08,0.089c-0.022,0.031-0.037,0.065-0.057,0.098c-0.021,0.034-0.042,0.067-0.06,0.103
	c-0.041,0.081-0.073,0.164-0.099,0.248c-0.007,0.024-0.018,0.046-0.024,0.07c-0.028,0.112-0.042,0.227-0.043,0.341
	c0,0.007-0.003,0.014-0.003,0.021v1.047c0,0.829,0.671,1.5,1.5,1.5c0.256,0,0.494-0.07,0.705-0.184l167.787,121.55v0.28
	c0,0.829,0.671,1.5,1.5,1.5s1.5-0.671,1.5-1.5v-0.218l185.053-116.487c0.238,0.158,0.522,0.251,0.83,0.251
	c0.829,0,1.5-0.671,1.5-1.5v-1.046C1282.539,1626.065,1282.532,1626.045,1282.531,1626.022z"/>
<polygon fill="#ABABAB" points="8083.76,2937.314 7953.136,2846.548 7933.815,2832.231 7903.479,2811.508 7890.321,2817.989 
	7587.318,3001.508 7513.105,3046.978 7451.081,3088.203 7406.045,3114.005 7495.632,3156.981 7505.464,3150.791 7505.034,3149.718 
	7506.938,3149.862 7507.004,3149.821 7507.086,3149.77 7507.086,3136.475 7507.086,3135.182 7507.086,3109.117 7504.13,3106.976 
	7527.33,3092.372 7527.329,3092.371 7561.807,3070.668 7561.807,3070.669 7580.406,3058.961 7788.785,2927.789 7800.789,2920.232 
	7855.836,2960.109 7881.167,2954.148 7972.764,3020.504 7971.358,3023.465 7965.229,3027.393 7965.171,3027.449 7965.171,3044.024 
	7965.457,3044.753 7965.457,3069.568 7897.73,3112.201 7897.719,3112.209 7847.065,3144.094 7820.453,3160.846 7820.453,3161.052 
	7820.3,3160.942 7628.396,3281.743 7627.504,3281.097 7484.47,3361.408 7484.939,3362.246 7483.966,3362.16 7483.729,3364.118 
	7483.742,3364.11 7483.482,3366.363 7482.457,3370.529 7480.901,3374.649 7478.832,3378.674 7476.272,3382.549 7473.238,3386.229 
	7469.749,3389.663 7465.827,3392.797 7461.355,3395.654 7451.901,3400.41 7421.139,3376.08 7213.722,3512.715 7109.652,3578.371 
	7109.652,3579.612 7133.531,3598.709 7119.885,3605.104 7104.731,3614.8 7094.673,3621.903 7091.654,3621.097 7065.106,3605.845 
	6745.412,3809.949 6694.409,3843.439 6691.25,3843.323 6691.25,3845.006 6717.355,3869.241 6717.285,3869.325 6679.877,3890.427 
	6666.762,3896.811 6655.629,3900.87 6644.091,3904.049 6632.287,3906.34 6620.309,3907.753 6608.249,3908.298 6596.198,3907.987 
	6584.246,3906.83 6572.486,3904.839 6561.009,3902.026 6549.904,3898.401 6539.266,3893.976 6529.164,3888.75 6529.065,3888.681 
	6527.952,3887.898 6517.68,3880.684 6468.779,3841.539 6463.83,3831.215 6467.218,3818.519 6469.539,3805.014 6468.129,3786.995 
	6462.817,3770.049 6453.934,3754.237 6441.816,3739.75 6426.808,3726.767 6409.242,3715.46 6389.448,3706.007 6367.749,3698.583 
	6344.472,3693.364 6319.939,3690.532 6294.477,3690.268 6268.315,3692.764 6249.159,3696.492 6231.198,3701.618 6206.922,3711.676 
	6186.268,3723.772 6169.307,3737.582 6156.097,3752.784 6146.709,3769.052 6141.212,3786.06 6139.67,3803.584 6140.296,3807.915 
	6142.178,3821.145 6148.762,3838.315 6159.481,3854.847 6174.374,3870.402 6193.48,3884.655 6209.331,3893.06 6225.824,3900.25 
	6239.058,3907.316 6248.573,3914.407 6256.835,3922.056 6263.795,3930.16 6269.291,3938.439 6273.703,3947.418 6276.601,3956.41 
	6278.091,3965.539 6278.146,3973.901 6278.15,3974.602 6278.156,3975.461 6390.555,3992.896 6391.245,3993.004 6406.161,3966.036 
	6434.936,3952.206 6478.019,3954.064 6489.316,3958.862 6497.67,3950.053 6500.444,3946.159 6500.177,3944.978 6500.834,3943.486 
	6500.623,3942.639 6501.177,3942.052 6501.114,3941.568 6501.223,3940.12 6501.037,3939.807 6500.979,3939.542 6500.974,3939.543 
	6500.892,3939.154 6500.545,3937.595 6501.327,3936.16 6501.803,3935.525 6501.803,3935.521 6501.806,3935.521 6501.876,3935.428 
	6501.872,3935.325 6501.973,3935.299 6502.107,3935.118 6502.232,3935.23 6502.659,3935.117 6502.563,3935.039 6502.575,3935.021 
	6502.405,3934.824 6502.576,3935.018 6504.868,3931.223 6505.533,3935.22 6505.67,3935.352 6505.935,3936.416 6505.771,3937.396 
	6505.774,3937.551 6505.819,3937.649 6506.421,3938.585 6506.688,3939.673 6506.6,3941.807 6506.785,3942.882 6506.666,3943.18 
	6506.856,3943.95 6506.789,3944.024 6506.929,3944.355 6507.275,3945.769 6507.17,3946.268 6508.721,3948.392 6514.45,3942.981 
	6516.061,3943.759 6516.688,3943.167 6516.688,3944.062 6531.395,3951.162 6531.354,3955.179 6530.295,3959.66 6530.295,3963.105 
	6531.174,3963.529 6531.174,3965.539 6530.75,3965.939 6531.174,3966.145 6531.174,3968.154 6530.295,3968.984 6530.295,3969.484 
	6540.761,3979.631 6541.057,3980.836 6548.287,3983.905 6571.175,3962.398 6571.175,3951.084 6570.969,3950.984 6570.969,3948.317 
	6578.501,3941.205 6589.104,3946.326 6589.104,3948.162 6596.812,3945.558 6625.844,3934.142 6669.674,3990.532 6671.056,3991.2 
	6671.251,3994.547 6671.215,3994.581 6671.23,4000.82 6671.229,4000.822 6671.221,4016.522 6671.982,4018.074 6671.191,4018.827 
	6671.191,4045.198 6715.555,4070.147 6715.555,4071.839 6724.95,4067.983 6825.912,4002.785 6943.176,3929.032 7052.295,3858.371 
	7275.688,3716.664 7276.088,3716.396 7610.103,3506.353 7722.828,3433.819 8280.025,3080.123 8280.025,3078.853 "/>
<polygon fill="#ABABAB" points="4541.711,3017.311 4566.094,2980.241 4555.869,2972.872 4457.245,2902.791 4452.886,2898.954 
	4451.423,2896.709 4450.417,2894.375 4449.704,2891.192 4304.6,2822.687 4304.204,2822.5 4275.696,2826.131 4132.087,2850.348 
	4115.076,2853.859 4098.594,2859.088 4083.229,2865.744 4069.404,2873.58 4057.109,2882.6 3935.124,2986.301 3844.634,3064.077 
	3827.789,3073.245 3804.737,3082.002 3802.541,3083.188 3799.992,3084.321 3796.52,3085.571 3792.116,3086.768 3786.809,3087.726 
	3780.633,3088.254 3773.62,3088.167 3765.796,3087.274 3757.192,3085.385 3747.839,3082.309 3735.592,3076.885 3735.592,3080.329 
	3916.49,3170.82 3916.49,3167.572 3914.515,3165.467 3912.819,3163.464 3910.768,3160.797 3908.523,3157.508 3906.331,3153.762 
	3904.354,3149.616 3902.781,3145.166 3901.792,3140.497 3901.566,3135.862 3902.253,3131.05 3904.012,3126.291 3923.521,3104.149 
	4103.135,2944.681 4113.882,2936.619 4124.021,2930.491 4135.063,2925.295 4146.862,2921.044 4159.264,2917.747 4172.118,2915.424 
	4185.266,2914.083 4198.555,2913.741 4211.831,2914.405 4224.938,2916.088 4237.721,2918.799 4250.027,2922.546 4261.706,2927.34 
	4275.278,2934.493 4290.783,2926.128 4346.201,2980.95 4342.393,3038.452 4342.393,3040.051 4399.428,3044.428 4436.781,3021.286 
	4458.773,3037.264 4517.291,2999.727 "/>
<polygon fill="#ABABAB" points="8828.985,1597.847 8873.463,1553.113 8873.463,1551.309 8682.137,1466.666 8669.663,1477.527 
	8664.748,1480.503 8659.101,1482.628 8653.305,1483.815 8647.53,1484.125 8641.951,1483.628 8636.733,1482.394 8632.056,1480.503 
	8628.083,1478.044 8624.979,1475.116 8622.875,1471.817 8622.137,1469.174 8621.878,1468.247 8622.068,1464.507 8623.732,1460.063 
	8623.679,1460.043 8624.58,1458.934 8624.684,1459.017 8625.506,1458.001 8625.404,1457.919 8626.44,1456.645 8627.484,1455.56 
	8628.73,1454.032 8631.166,1451.032 8633.287,1448.222 8633.385,1448.301 8634.695,1446.689 8634.695,1444.972 8517.518,1392.829 
	8499.81,1407.358 8494.777,1410.804 8489.283,1412.946 8483.456,1413.949 8477.548,1413.911 8471.825,1412.936 8466.56,1411.138 
	8462.02,1408.649 8458.473,1405.622 8456.145,1402.227 8455.205,1398.668 8455.742,1394.923 8458.181,1390.64 8465.944,1380.996 
	8467.351,1379.045 8468.656,1377.425 8468.759,1377.507 8471.587,1373.996 8471.587,1372.278 8214.305,1259.336 8043.886,1182.844 
	7890.044,1117.122 7695.999,1028.139 7675.605,1021.486 7674.255,1023.793 7529.007,1103.417 7203.378,1295.938 7060.917,1382.745 
	7056.448,1387.145 7054.264,1391.91 7053.411,1397.019 7053.795,1399.16 7054.033,1400.578 7074.596,1387.635 7074.596,1385.073 
	7073.474,1385.112 7075.175,1381.101 7078.11,1379.254 7146.443,1376.898 7147.331,1376.338 7148.111,1377.496 7148.741,1378.202 
	7177.197,1420.411 7192.915,1432.437 7187.486,1435.673 7217.076,1479.565 7215.832,1480.403 7215.957,1480.604 7217.012,1480.604 
	7217.012,1486.571 7214.266,1488.299 7214.266,1492.377 7213.036,1490.553 7213.035,1527.336 7214.342,1528.35 7214.973,1528.766 
	7214.973,1532.589 7213.036,1533.994 7213.036,1540.693 7144.867,1583.604 7146.368,1584.691 7146.368,1586.577 7149.221,1588.644 
	7149.221,1590.528 7152.074,1592.596 7152.074,1594.48 7154.927,1596.547 7154.927,1600.025 7136.523,1611.61 7135.224,1610.673 
	7135.179,1610.641 7134.604,1610.226 7134.604,1610.224 7119.715,1599.437 7044.953,1646.499 6972.191,1593.79 6972.191,1593.79 
	6922.694,1557.933 6840.169,1607.41 6840.169,1609.217 6957.508,1697.553 6947.794,1719.438 6849.356,1773.393 6808.748,1731.178 
	6703.261,1778.187 6516.857,1857.462 6516.857,1859.247 6555.004,1900.877 6616.275,1951.939 6616.275,1951.578 6657.99,1983.726 
	6663.488,1981.608 6669.464,1992.567 6677.943,1999.102 6674.367,2001.561 6701.701,2051.691 6753.438,2088.195 6824.436,2043.554 
	6824.436,2032.127 6822.532,2030.749 6822.532,2026.703 6944.861,1949.699 6891.954,1912.315 6888.445,1909.132 6886.618,1905.208 
	6886.554,1901.933 6888.29,1898.146 6891.497,1894.788 6896.319,1892.366 7163.447,1784.74 7325.859,1716.896 7447.592,1660.432 
	7561.476,1599.823 7723.41,1504.353 8322.965,1955.751 8638.828,1770.197 8778.816,1829.451 8948.354,1652.028 8948.354,1650.238 
	"/>
<path fill="#ABABAB" d="M3394.951,1828.648c-0.002-0.097-0.014-0.194-0.036-0.29c-0.008-0.036-0.02-0.07-0.03-0.105
	c-0.021-0.071-0.047-0.139-0.079-0.208c-0.018-0.039-0.038-0.076-0.059-0.113c-0.015-0.025-0.024-0.052-0.04-0.076
	c-0.025-0.038-0.056-0.068-0.083-0.102c-0.024-0.031-0.047-0.062-0.074-0.091c-0.067-0.072-0.14-0.137-0.218-0.193
	c-0.01-0.007-0.017-0.017-0.026-0.023l-0.013-0.009c-0.003-0.002-0.006-0.004-0.009-0.006l-872.042-600.029
	c-0.503-0.345-1.165-0.353-1.674-0.018l-40.43,26.569l-4.854,2.44l-6.339,1.347l-3.823,0.189l-3.631-0.344l-3.44-0.814l-3.253-1.221
	l-3.062-1.565l-2.873-1.849l-2.672-2.063l-2.436-2.181l-2.265-2.298l-2.047-2.308l-1.828-2.254l-1.585-2.101l-4.351-7.022
	c0,0,0-0.001-0.001-0.002l-0.909-1.466l-0.011-0.017l-2.453-8.579l-0.828-8.932l1.488-8.888l3.463-8.678l5.363-8.266l7.421-7.609
	l9.418-6.74c0.394-0.282,0.627-0.736,0.627-1.22v-0.209c0-0.006-0.002-0.011-0.002-0.017c-0.001-0.119-0.019-0.238-0.048-0.355
	c-0.007-0.029-0.019-0.056-0.028-0.084c-0.027-0.085-0.062-0.168-0.106-0.249c-0.018-0.034-0.036-0.066-0.056-0.098
	c-0.015-0.023-0.024-0.047-0.04-0.07c-0.041-0.058-0.09-0.106-0.137-0.156c-0.017-0.018-0.03-0.038-0.047-0.054
	c-0.089-0.085-0.187-0.156-0.291-0.216c-0.007-0.004-0.013-0.011-0.02-0.015c-0.017-0.009-0.036-0.012-0.052-0.021
	c-0.087-0.043-0.176-0.078-0.268-0.104c-0.032-0.009-0.063-0.019-0.095-0.025c-0.116-0.024-0.234-0.04-0.353-0.037
	c-0.001,0-0.001,0-0.002,0c-0.117,0.003-0.233,0.025-0.348,0.057c-0.032,0.009-0.063,0.021-0.095,0.031
	c-0.086,0.03-0.169,0.068-0.25,0.115c-0.02,0.011-0.042,0.016-0.061,0.028l-205.886,129.956c-0.018,0.011-0.031,0.028-0.048,0.04
	c-0.07,0.048-0.134,0.102-0.194,0.16c-0.023,0.022-0.047,0.043-0.068,0.066c-0.077,0.085-0.146,0.177-0.201,0.276
	c-0.002,0.004-0.003,0.008-0.005,0.012c-0.052,0.096-0.09,0.197-0.12,0.302c-0.009,0.033-0.015,0.065-0.022,0.098
	c-0.018,0.083-0.028,0.167-0.032,0.252c-0.001,0.021-0.008,0.041-0.008,0.062v0.209c0,0.521,0.271,1.005,0.715,1.278
	c0.444,0.273,0.999,0.295,1.464,0.06l10.56-5.36l7.498-3.264l7.872-2.617l8.228-2l8.496-1.389l8.675-0.784l8.764-0.184l8.767,0.412
	l8.679,1l8.502,1.581l8.238,2.153l7.886,2.718l7.409,3.26l14.543,9.233l3.482,3.159l1.826,3.917l0.026,3.824l-1.705,3.724
	l-4.059,3.426l-151.197,99.934c-0.01,0.006-0.017,0.016-0.026,0.022c-0.082,0.057-0.158,0.122-0.229,0.196
	c-0.01,0.01-0.022,0.018-0.031,0.028c-0.002,0.002-0.004,0.004-0.006,0.006c-0.076,0.085-0.138,0.178-0.191,0.273
	c-0.013,0.023-0.021,0.048-0.033,0.072c-0.038,0.079-0.07,0.159-0.094,0.241c-0.01,0.034-0.017,0.068-0.024,0.103
	c-0.017,0.081-0.027,0.162-0.03,0.243c-0.001,0.022-0.008,0.043-0.008,0.066v0.21c0,0.427,0.182,0.834,0.501,1.119l3.959,3.533
	l1.773,3.812l-0.289,3.562l-1.757,3.85l-3.697,3.689l-55.469,36.729c-0.016,0.011-0.027,0.025-0.043,0.037
	c-0.073,0.052-0.142,0.11-0.205,0.176c-0.029,0.03-0.054,0.062-0.079,0.094c-0.026,0.032-0.057,0.06-0.081,0.094
	c-0.019,0.027-0.03,0.057-0.047,0.085c-0.021,0.036-0.042,0.071-0.059,0.108c-0.036,0.073-0.064,0.148-0.088,0.225
	c-0.009,0.03-0.021,0.059-0.027,0.089c-0.026,0.112-0.042,0.225-0.042,0.338c0,0.002,0,0.003,0,0.005v0.21
	c0,0.494,0.243,0.956,0.649,1.236l381.723,262.336c0,0,0.001,0,0.002,0.001c0.11,0.075,0.232,0.13,0.36,0.174
	c0.03,0.01,0.059,0.02,0.089,0.027c0.121,0.033,0.245,0.056,0.376,0.058c0.005,0,0.01,0.001,0.016,0.001c0.001,0,0.002,0,0.004,0
	c0.147,0,0.288-0.022,0.422-0.062c0.023-0.007,0.043-0.021,0.065-0.029c0.114-0.04,0.223-0.088,0.322-0.152
	c0.009-0.005,0.018-0.007,0.026-0.012l39.566-26.567l5.693-2.441l5.937-1.613l6.131,0.227l6.48,1.552l4.87,2.55l10.725,6.911
	l5.52,4.725l1.578,2.099l1.405,2.258l1.156,2.32l0.896,2.358l0.622,2.382l0.337,2.385l0.035,2.193l-0.265,2.324l-0.593,2.318
	l-0.932,2.277l-1.289,2.224l-1.744,2.24l-4.702,4.854l-23.57,18.393l-4.234,3.653l-7.628,5.133l-5.041,2.716l-5.47,2.288
	l-5.828,1.864l-6.12,1.435l-6.334,1.01l-6.425,0.582l-6.542,0.163l-6.534-0.261l-6.505-0.685l-6.3-1.097l-6.068-1.507l-5.849-1.96
	l-8.352-4.221l-110.07-62.283c-0.536-0.303-1.201-0.248-1.68,0.137l-424.967,342.088c-0.023,0.019-0.041,0.043-0.062,0.063
	c-0.052,0.047-0.103,0.094-0.147,0.149c-0.03,0.036-0.055,0.075-0.081,0.114c-0.023,0.034-0.051,0.064-0.072,0.102
	c-0.009,0.016-0.014,0.033-0.022,0.049c-0.022,0.042-0.039,0.084-0.057,0.128c-0.023,0.057-0.044,0.114-0.061,0.173
	c-0.011,0.041-0.02,0.082-0.027,0.124c-0.012,0.065-0.02,0.13-0.022,0.195c-0.001,0.024-0.008,0.047-0.008,0.071v0.21
	c0,0.54,0.29,1.038,0.759,1.304l91.646,52.108l10.381,6.66l4.981,4.408l4.312,4.658l3.605,4.844l2.888,4.989l2.167,5.104
	l1.438,5.185l0.701,5.227l-0.039,5.057l-0.793,5.255l-1.561,5.224l-2.344,5.166l-3.141,5.067l-6.687,8.161l-4.779,4.94l-8.589,6.75
	l-6.456,4.354l-7.004,3.75l-7.501,3.163l-7.924,2.568l-8.267,1.976l-8.535,1.38l-8.72,0.783l-8.832,0.185l-8.863-0.413l-8.816-1.009
	l-8.691-1.605l-8.449-2.191l-11.755-4.803c-0.023-0.01-0.048-0.011-0.072-0.02c-0.078-0.027-0.155-0.05-0.234-0.064
	c-0.039-0.007-0.077-0.011-0.116-0.015c-0.076-0.007-0.152-0.009-0.228-0.004c-0.037,0.002-0.072,0.002-0.108,0.007
	c-0.095,0.012-0.187,0.033-0.276,0.062c-0.016,0.005-0.032,0.007-0.047,0.013c-0.105,0.038-0.205,0.09-0.299,0.151
	c-0.007,0.005-0.016,0.007-0.024,0.012c-0.019,0.013-0.032,0.03-0.05,0.043c-0.067,0.049-0.129,0.103-0.188,0.163
	c-0.026,0.027-0.051,0.054-0.075,0.083c-0.048,0.058-0.091,0.121-0.131,0.188c-0.02,0.033-0.041,0.064-0.058,0.099
	c-0.008,0.016-0.019,0.029-0.026,0.045c-0.031,0.066-0.049,0.135-0.07,0.204c-0.006,0.022-0.017,0.043-0.022,0.066
	c-0.027,0.112-0.041,0.226-0.042,0.338c0,0.006-0.002,0.011-0.002,0.017v0.209c0,0.586,0.342,1.119,0.875,1.364l229.476,105.171
	c0.199,0.092,0.413,0.137,0.625,0.137c0.283,0,0.564-0.08,0.81-0.237c0.43-0.276,0.69-0.752,0.69-1.263v-0.209
	c0-0.016-0.006-0.03-0.006-0.046c-0.003-0.104-0.018-0.205-0.042-0.304c-0.008-0.033-0.016-0.065-0.026-0.097
	c-0.033-0.106-0.076-0.21-0.131-0.306c-0.005-0.008-0.007-0.017-0.012-0.023c-0.062-0.102-0.138-0.193-0.223-0.279
	c-0.024-0.023-0.05-0.045-0.075-0.067c-0.068-0.06-0.143-0.113-0.223-0.161c-0.021-0.012-0.036-0.029-0.058-0.041l-10.473-5.574
	l-6.174-4.521l-5.437-4.84l-4.643-5.092l-3.824-5.301l-2.985-5.467l-2.125-5.594l-1.247-5.684l-0.339-5.612l0.564-5.696l1.524-5.777
	l2.509-5.754l3.527-5.691l6.664-8.149l2.136-2.301l7.202-5.378l5.144-3.362l5.604-2.825l6.06-2.336l6.429-1.837l6.712-1.339
	l6.907-0.835l7.016-0.328l7.038,0.181l6.972,0.688l6.817,1.196l6.577,1.703l6.39,2.267l8.837,3.814l109.996,62.428
	c0.018,0.01,0.038,0.014,0.056,0.023c0.078,0.04,0.16,0.072,0.245,0.099c0.031,0.01,0.061,0.021,0.092,0.028
	c0.112,0.027,0.228,0.045,0.348,0.045c0.164,0,0.32-0.03,0.468-0.079c0.04-0.014,0.074-0.037,0.113-0.053
	c0.109-0.047,0.212-0.101,0.306-0.17c0.017-0.013,0.037-0.017,0.053-0.029l425.351-341.792c0.354-0.285,0.561-0.715,0.561-1.169
	v-0.209c0-0.018-0.005-0.034-0.006-0.052c-0.003-0.074-0.013-0.147-0.026-0.221c-0.006-0.034-0.01-0.067-0.018-0.101
	c-0.022-0.086-0.054-0.17-0.092-0.252c-0.008-0.017-0.012-0.034-0.02-0.05c-0.046-0.092-0.102-0.18-0.169-0.264
	c-0.003-0.003-0.006-0.006-0.009-0.01c-0.018-0.021-0.039-0.038-0.058-0.058c-0.057-0.062-0.116-0.121-0.18-0.171
	c-0.008-0.006-0.013-0.015-0.021-0.021l-0.389-0.292c-0.051-0.039-0.105-0.074-0.162-0.106l-109.246-61.866l-7.624-5.164
	l-3.853-3.28l-3.277-3.593l-2.697-3.853l-2.109-4.054l-1.511-4.196l-0.904-4.282l-0.279-4.194l0.333-4.185l0.977-4.198l1.627-4.063
	l2.292-3.873l3.087-3.75l6.455-6.451l15.567-12.538l7.554-4.573l4.157-1.83l4.51-1.488l4.771-1.125l4.952-0.757l5.051-0.379
	l5.072,0.005l5.01,0.396l4.868,0.79l4.647,1.188l4.344,1.588l3.962,1.984l3.87,2.646l3.843,3.971l1.892,4.056l0.357,3.466
	l-2.411,3.713l-3.349,3.504l-40.339,26.514c-0.004,0.003-0.008,0.006-0.013,0.009l-0.005,0.003
	c-0.005,0.003-0.008,0.008-0.013,0.011c-0.087,0.059-0.167,0.129-0.243,0.207c-0.025,0.027-0.047,0.056-0.071,0.084
	c-0.029,0.035-0.062,0.066-0.088,0.104c-0.019,0.027-0.029,0.056-0.046,0.084c-0.021,0.034-0.039,0.068-0.057,0.104
	c-0.037,0.074-0.065,0.148-0.088,0.226c-0.009,0.03-0.021,0.06-0.028,0.091c-0.026,0.112-0.042,0.225-0.042,0.338
	c0,0.001,0,0.002,0,0.003v0.209c0,0.495,0.245,0.958,0.653,1.238l109.489,74.846c0,0,0.001,0,0.002,0.001
	c0.109,0.075,0.231,0.129,0.359,0.173c0.029,0.01,0.057,0.019,0.086,0.027c0.117,0.032,0.237,0.054,0.364,0.057
	c0.009,0,0.018,0.002,0.028,0.002c0.002,0,0.004,0.001,0.007,0.001c0.144,0,0.283-0.021,0.415-0.059
	c0.021-0.006,0.039-0.019,0.059-0.025c0.116-0.039,0.226-0.087,0.327-0.151c0.008-0.005,0.017-0.006,0.024-0.011l39.995-26.319
	l5.265-2.689l5.896-1.092l6.235-0.296l6.418,1.538l4.85,2.54l177.196,120.018c0.101,0.068,0.212,0.12,0.328,0.163
	c0.029,0.011,0.059,0.019,0.088,0.027c0.088,0.026,0.179,0.044,0.273,0.053c0.032,0.003,0.063,0.009,0.095,0.01
	c0.02,0.001,0.038,0.006,0.058,0.006c0.062,0,0.12-0.016,0.18-0.022c0.051-0.006,0.103-0.008,0.153-0.02
	c0.091-0.021,0.176-0.055,0.26-0.091c0.029-0.013,0.061-0.017,0.089-0.032l5.352-2.739l6.267-1.332l6.201,0.231l6.136,1.278
	l5.627,2.568l11.473,8.057c0.002,0.002,0.005,0.002,0.008,0.004c0.111,0.078,0.235,0.136,0.366,0.181
	c0.029,0.01,0.057,0.019,0.086,0.027c0.128,0.036,0.261,0.061,0.401,0.061c0.146,0,0.287-0.022,0.42-0.062
	c0.025-0.007,0.047-0.022,0.072-0.031c0.109-0.038,0.215-0.084,0.311-0.146c0.007-0.004,0.016-0.006,0.023-0.011l225.402-149.064
	c0.42-0.278,0.673-0.748,0.673-1.251v-0.194c0-0.001,0-0.001,0-0.002v-0.012c0-0.01-0.003-0.019-0.003-0.028
	c-0.002-0.102-0.015-0.203-0.038-0.304c-0.008-0.034-0.019-0.067-0.029-0.101c-0.022-0.074-0.05-0.146-0.084-0.216
	c-0.018-0.037-0.036-0.072-0.056-0.107c-0.014-0.023-0.022-0.048-0.037-0.07c-0.029-0.044-0.065-0.08-0.098-0.12
	c-0.022-0.027-0.043-0.057-0.067-0.083c-0.08-0.084-0.166-0.16-0.259-0.221c0-0.001-0.001-0.001-0.001-0.001l-12.253-8.073
	l-3.449-3.667l-1.489-3.671l-0.03-3.859l1.708-3.734l3.629-3.162l57.237-37.799c0.42-0.278,0.673-0.748,0.673-1.252v-0.211
	C3394.955,1828.672,3394.951,1828.661,3394.951,1828.648z"/>
<path fill="#004500" d="M8771.869,2300.354l-901.385-667.135l-53.494-39.588l-1.057-0.488l-1.818,0.028l-17.68,10.759l-0.568-0.108
	l-0.885,0.051l-1.213,0.766l0.528,0.846l-0.036,0.02l-0.595-0.8l-113.859,70.075l0.005,0.015l-303.404,186.76l0.023-0.05
	l-253.003,155.741l-0.216,0.148l-0.715,0.836l-0.231,0.901l0.001,0.026l-0.006,0.078l0.008,0.249l0.277,0.861l1049.586,777.062
	l0.541,0.312l1.3,0.301l0.872-0.083l16.822-10.168l-0.008,0.02l1.37-0.844l1.384-0.836l-0.005-0.013l421.715-259.548l-0.05-0.133
	l23.306-13.037l227.112-139.766v-1.794L8771.869,2300.354z"/>
<g>
	<path fill="#004500" d="M9888.203,2066.613l-20.15-24.516l-6.206-6.945l-6.006-6.488l-6.115-6.4l-6.22-6.317l-6.325-6.23
		l-5.468-5.225l-0.009-1.606l-0.424-0.521l-1.254-0.84l-1.437,0.032l-0.375-0.349l-0.152,0.094l-78.394-62.799l-90.154-52.774
		l-98.808-41.933l-105.487-31.037l-110.187-20.084l-112.98-9.081l-113.579,2.004l-112.419,13.132l-109.209,24.333l-104.024,35.598
		l-96.858,46.933l-87.057,57.898l-0.084-0.036l-1.991,0.116l-0.442,0.246l-1.529,1.607l0.422,0.547l0.006,0.312l-6.195,4.892
		l-7.091,5.775l-7,5.867l-6.91,5.958l-6.817,6.044l-6.748,6.163l-23.9,23.541v1.593l365.7,271.087l0.563-0.341v0.496l129.136,95.741
		l15.18,11.39l30.433,22.336l58.522,43.491l90.484,2.755l72.051-44.509l4.748-3.077l8.551-5.188l175.313-108.257l0.168,0.124
		l9.291-5.944l14.379-9.248l373.059-228.771V2066.613z"/>
</g>
<polygon points="2203.761,1747.345 2221.44,1732.906 2190.601,1712.744 2173.289,1702.755 2157.249,1715.858 2110.665,1750.635 
	2084.08,1735.802 2043.67,1766.897 2028.079,1779.208 2027.42,1778.828 2027.42,1775.861 2027.767,1775.587 2028.156,1775.224 
	2028.388,1774.364 2028.343,1774.113 2028.546,1773.776 2028.546,1773.438 2031.316,1771.249 2014.579,1753.593 2014.579,1753.1 
	2010.237,1750.597 1996.838,1761.186 1988.681,1756.479 1985.208,1754.371 1969.672,1745.519 1965.433,1748.868 1949.091,1739.44 
	1945.984,1741.896 1945.984,1742.235 1933.229,1757.142 1935.562,1758.488 1935.562,1758.709 1935.703,1758.93 1935.679,1759.143 
	1935.959,1760.049 1936.413,1760.311 1936.413,1772.288 1935.886,1772.74 1935.675,1773.598 1935.698,1773.724 1935.564,1773.958 
	1935.564,1774.871 1935.441,1775.017 1935.523,1775.817 1928.824,1782.107 1930.428,1790.766 1922.402,1786.136 1918.719,1789.047 
	1918.719,1789.442 1901.997,1808.983 1904.836,1810.622 1904.836,1811.058 1905.038,1811.376 1905.008,1811.753 1905.276,1812.655 
	1905.816,1812.966 1905.847,1813 1905.968,1813.07 1905.968,1818.413 1878.826,1847.047 1882.477,1849.153 1882.477,1875.728 
	1881.989,1876.126 1881.37,1876.834 1881.221,1877.583 1881.223,1879.016 1881.393,1879.998 1881.919,1880.508 1882.477,1880.877 
	1882.477,1881.876 1869.707,1891.971 1867.816,1893.333 1863.66,1897.406 1865.006,1898.182 1865.938,1899.866 1865.938,1900.097 
	1866.907,1900.658 1866.907,1900.761 1867.049,1900.843 1867.049,1903.408 1865.859,1904.348 1865.859,1906.403 1866.442,1906.733 
	1864.958,1907.497 1866.816,1908.568 1866.816,1913.984 1856.764,1921.931 1854.492,1921.839 1851.371,1924.306 1852.529,1927 
	1852.529,1928.983 1865.619,1936.536 1866.522,1937.028 1874.301,1941.516 1886.725,1948.476 1885.838,1949.177 1885.838,1951.231 
	1886.419,1951.566 1884.944,1952.329 1886.794,1953.396 1886.794,1963.282 1885.979,1963.928 1885.979,1965.962 1886.793,1966.432 
	1886.973,1966.743 1886.973,1968.121 1886.86,1968.36 1886.37,1968.747 1885.551,1970.33 1884.37,1971.264 1884.37,1981.642 
	1922.528,2003.657 1925.938,2000.962 1975.097,2029.321 1998.503,2010.821 2002.108,2012.9 2022.329,1996.918 2030.84,2001.829 
	2065.305,1974.587 2064.375,1973.41 2065.875,1973.41 2065.875,1962.498 2075.002,1955.284 2104.316,1952.994 2125.46,1936.28 
	2124.53,1935.104 2126.03,1935.104 2126.03,1900.923 2126.571,1900.497 2127.125,1900.001 2127.386,1898.833 2127.384,1898.107 
	2196.978,1843.1 2196.048,1841.923 2197.548,1841.923 2197.548,1807.573 2198.452,1806.869 2200.937,1803.243 2174.469,1787.214 
	2133.396,1763.518 2174.698,1730.577 "/>
<polygon points="928.436,1473.988 918.458,1466.761 917.539,1466.162 909.173,1461.276 909.173,1450.609 909.578,1450.354 
	909.578,1450.007 911.02,1449.1 911.02,1446.673 886.559,1425.664 886.306,1425.823 861.023,1395.161 861.023,1374.786 
	862.117,1372.606 825.93,1353.39 789.818,1376.121 768.316,1364.578 737.079,1384.241 735.147,1383.07 682.035,1416.504 
	682.884,1418.816 653.741,1437.162 656.027,1440.389 657.146,1440.557 657.331,1460.721 657.331,1501.223 657.52,1501.359 
	657.52,1501.37 658.597,1502.15 658.597,1508.072 691.762,1531.788 709.84,1544.877 708.067,1545.993 708.067,1547.989 
	705.276,1549.745 705.276,1551.741 702.486,1553.498 702.486,1555.494 699.695,1557.25 699.695,1560.84 715.094,1571.994 
	715.094,1572.197 715.244,1572.103 716.531,1573.035 717.579,1572.382 717.579,1572.382 717.608,1572.364 718.28,1571.945 
	718.28,1571.94 733.754,1562.2 736.257,1564.011 740.376,1567.386 783.484,1539.977 823.418,1515.028 823.418,1515.71 
	839.032,1527.021 840.13,1526.326 840.13,1526.326 844.219,1523.753 844.219,1522.513 844.521,1522.323 844.521,1521.673 
	847.849,1519.578 847.849,1518.336 848.054,1518.207 852.844,1521.677 857.057,1518.661 861.127,1516.1 867.573,1520.769 
	883.322,1510.879 919.523,1491.995 929.35,1485.799 929.35,1483.51 929.35,1476.129 929.35,1474.65 929.35,1473.412 "/>
<polygon points="5368.295,2414.525 5187.005,2283.191 5158.167,2301.344 4846.997,2075.921 4745.841,2139.596 4623.937,2051.285 
	4483.318,2139.803 4473.373,2132.599 4439.084,2154.182 4432.005,2148.879 4417.279,2158.148 4417.279,2161.269 4421.391,2164.247 
	4421.391,2259.94 4456.485,2285.363 4466.769,2278.892 4493.635,2298.354 4423.042,2342.792 4423.042,2400.822 4580.292,2514.746 
	4580.292,2515.132 4599.677,2529.175 4599.961,2528.995 4743.85,2633.225 4743.85,2646.81 4761.029,2659.256 4761.029,2661.209 
	4762.472,2660.301 4796.561,2684.997 4796.561,2684.997 4841.979,2717.899 4850.789,2724.281 4850.789,2724.281 4873.15,2740.48 
	4873.15,2742.428 4874.59,2741.523 4911.441,2768.22 4911.441,2768.219 4925.14,2778.143 4937.153,2770.579 5000.288,2730.839 
	5000.288,2730.839 5039.139,2706.383 5040.698,2707.513 5040.698,2705.401 5061.582,2692.256 5061.582,2692.256 5102.469,2666.518 
	5126.408,2683.859 5132.578,2680.008 5132.583,2680.005 5132.583,2680.005 5203.853,2635.115 5211.324,2630.412 5211.323,2630.41 
	5212.025,2629.968 5212.025,2597.553 5250.152,2573.554 5250.152,2573.554 5317.232,2531.328 5317.232,2531.328 5359.173,2504.928 
	5360.732,2506.059 5360.732,2503.946 5368.295,2499.186 "/>
<polygon points="3587.609,2231.149 3592.52,2228.058 3446.986,2122.581 3338.309,2190.095 3319.462,2176.441 3264.865,2210.809 
	3268.86,2213.703 3268.86,2252.227 3281.92,2261.688 3281.92,2288.871 3283.42,2288.871 3282.54,2290.086 3306.184,2307.214 
	3306.186,2309.231 3306.482,2310.08 3306.482,2312.21 3307.754,2311.425 3316.673,2317.887 3316.67,2319.64 3317.776,2318.687 
	3325.324,2324.154 3324.864,2324.834 3326.132,2324.823 3326.132,2324.926 3326.386,2324.924 3326.786,2325.214 3333.51,2327.01 
	3389.219,2367.366 3467.01,2318.397 3467.505,2318.758 3470.453,2316.882 3470.453,2316.114 3470.843,2315.812 3471.26,2315.544 
	3471.26,2314.766 3479.412,2309.634 3479.997,2310.059 3480.096,2309.996 3480.151,2310.036 3481.275,2309.331 3480.971,2308.846 
	3480.975,2308.849 3481.278,2309.33 3481.472,2309.208 3482.017,2309.602 3484.98,2307.756 3484.98,2307.085 3490.601,2303.548 
	3523.849,2327.633 3529.017,2324.38 3532.673,2325.2 3536.703,2326.184 3541.795,2326.506 3547.128,2326.051 3552.836,2324.879 
	3558.616,2323.031 3564.258,2320.583 3569.559,2317.625 3574.414,2314.208 3578.477,2310.559 3581.687,2306.745 3583.921,2302.881 
	3585.143,2298.864 3585.143,2296.158 3586.036,2293.212 3586.036,2292.642 3586.042,2292.624 3585.948,2288.768 3585.873,2288.588 
	3586.907,2287.937 3586.107,2286.668 3587.607,2286.668 "/>
<polygon points="5246.716,3035.577 5151.82,2966.831 5151.82,2954.716 5151.862,2954.681 5153.773,2953.478 5151.866,2952.246 
	5082.522,2902.044 5081.493,2901.68 5071.001,2908.284 5030.156,2878.696 4957.635,2859.746 4957.635,2856.062 4959.269,2855.031 
	4957.137,2853.116 4857.524,2780.944 4856.724,2781.32 4856.567,2781.419 4856.561,2781.409 4821.81,2803.299 4782.458,2828.07 
	4780.403,2829.316 4782.169,2830.596 4782.268,2830.685 4782.268,2844.324 4715.166,2886.562 4703.343,2877.999 4702.542,2878.375 
	4702.385,2878.474 4702.379,2878.464 4663.327,2903.062 4628.337,2925.089 4626.228,2926.374 4627.988,2927.648 4628.086,2927.737 
	4628.086,2941.378 4625.462,2943.029 4623.68,2941.738 4568.625,2976.395 4493.857,3090.06 4496.758,3092.16 4496.757,3120.798 
	4502.235,3124.767 4506.133,3122.316 4705.007,3266.387 4705.007,3271.66 4710.485,3275.629 4736.113,3259.497 4751.999,3270.993 
	4751.999,3277.644 4757.476,3281.611 4781.004,3266.801 4787.67,3271.63 4787.67,3293.895 4853.083,3341.28 4857.555,3344.723 
	4862.958,3348.638 4868.848,3344.93 4868.848,3338.722 4884.714,3328.724 4906.794,3344.63 4912.684,3340.922 4912.684,3336.006 
	5124.055,3202.952 5128.172,3202.532 5130.199,3204.001 5136.088,3200.294 5136.088,3171.573 5139.032,3169.721 5138.164,3168.262 
	5186.448,3137.868 5191.287,3135.021 5196.904,3131.485 5196.904,3097.143 5196.898,3095.905 5243.889,3066.148 5243.891,3037.815 
	5245.246,3038.17 "/>
<polygon points="4291.454,1909.513 4291.454,1906.535 4295.208,1904.173 4295.208,1902.773 4268.483,1883.429 4268.939,1883.429 
	4268.939,1851.443 4270.745,1850.307 4271.168,1850.041 4270.66,1849.234 4271.24,1847.844 4268.048,1845.532 4266.874,1844.438 
	4266.693,1844.551 4223.008,1812.904 4222.997,1807.968 4225.472,1807.062 4203.813,1791.371 4203.644,1791.372 4203.644,1791.372 
	4203.636,1791.372 4193.375,1791.437 4160.236,1767.431 4117.694,1758.912 4091.465,1739.892 4091.465,1734.898 4091.673,1734.768 
	4091.673,1733.157 4083.795,1727.449 4078.715,1730.647 4071.66,1725.53 4058.952,1723.357 4045.505,1713.609 4006.053,1706.849 
	3966.626,1763.242 3966.973,1763.654 3966.891,1763.731 3969.777,1765.82 3969.777,1786.848 3939.049,1806.19 3939.049,1807.952 
	3940.708,1809.154 3940.708,1842.922 3940.136,1843.286 3940.136,1846.13 3940.708,1846.547 3940.708,1854.097 3993.24,1892.153 
	4008.391,1882.617 4012.771,1885.79 4011.905,1886.335 4011.905,1887.264 4012.202,1887.479 4012.202,1888.402 4008.929,1890.464 
	4008.929,1891.393 4009.227,1891.608 4009.229,1892.53 4005.953,1894.592 4005.953,1895.521 4006.251,1895.737 4006.251,1897.192 
	4021.109,1907.957 4021.927,1907.442 4021.927,1907.442 4024.372,1905.903 4027.373,1901.755 4027.38,1901.751 4027.58,1901.598 
	4027.58,1901.469 4029.93,1898.222 4050.266,1912.953 4050.236,1913.464 4048.177,1916.721 4050.395,1918.777 4050.38,1918.787 
	4050.38,1921.63 4050.951,1922.044 4050.951,1929.598 4087.289,1955.923 4097.223,1949.668 4157.805,1993.557 4157.805,1993.723 
	4159.541,1994.98 4161.535,1993.726 4161.535,1993.568 4163.522,1992.318 4168.476,1995.905 4169.125,1995.497 4169.125,1995.81 
	4169.919,1996.386 4169.994,1996.339 4169.994,1996.44 4170.789,1997.017 4170.863,1996.97 4170.863,1997.069 4171.657,1997.646 
	4171.732,1997.6 4171.732,1997.701 4172.526,1998.273 4172.602,1998.227 4172.602,1998.33 4173.399,1998.905 4173.471,1998.86 
	4173.471,1998.96 4174.268,1999.534 4174.34,1999.488 4174.34,1999.587 4175.134,2000.166 4175.209,2000.119 4175.209,2000.218 
	4176.003,2000.795 4176.079,2000.747 4176.079,2000.848 4176.876,2001.425 4176.948,2001.379 4176.948,2001.478 4177.745,2002.055 
	4177.816,2002.01 4177.816,2002.106 4178.612,2002.684 4178.688,2002.636 4178.688,2002.737 4179.48,2003.313 4179.557,2003.266 
	4179.557,2003.367 4180.35,2003.943 4180.425,2003.896 4180.425,2003.997 4181.221,2004.571 4181.294,2004.525 4181.294,2004.627 
	4182.092,2005.202 4182.164,2005.156 4182.164,2005.256 4182.959,2005.832 4183.033,2005.785 4183.033,2005.886 4183.828,2006.463 
	4183.902,2006.416 4183.902,2006.514 4184.695,2007.092 4184.771,2007.044 4184.771,2007.145 4185.566,2007.722 4185.641,2007.675 
	4185.641,2007.774 4186.249,2008.216 4186.249,2008.526 4186.749,2008.526 4186.456,2008.932 4191.287,2012.432 4191.287,2013.081 
	4195.948,2010.147 4195.948,2009.62 4196.584,2009.219 4196.584,2008.9 4196.819,2009.071 4197.676,2008.532 4197.676,2008.213 
	4197.914,2008.385 4198.768,2007.844 4198.768,2007.524 4199.006,2007.695 4199.859,2007.156 4199.859,2006.839 4200.096,2007.011 
	4200.952,2006.469 4200.952,2006.149 4201.189,2006.319 4202.044,2005.782 4202.044,2005.465 4202.278,2005.635 4203.137,2005.095 
	4203.137,2004.777 4203.371,2004.947 4204.229,2004.407 4204.229,2004.09 4204.462,2004.26 4205.32,2003.721 4205.32,2003.401 
	4205.556,2003.572 4206.413,2003.032 4206.413,2002.715 4206.648,2002.884 4207.504,2002.346 4207.504,2002.027 4207.738,2002.197 
	4208.598,2001.657 4208.598,2001.34 4208.833,2001.509 4209.688,2000.97 4209.688,2000.651 4209.923,2000.822 4210.781,2000.283 
	4210.781,1999.966 4211.015,2000.136 4211.873,1999.596 4211.873,1999.277 4212.107,1999.446 4212.965,1998.908 4212.965,1998.591 
	4213.198,1998.761 4214.057,1998.221 4214.057,1997.9 4214.295,1998.071 4215.148,1997.532 4215.148,1997.217 4215.381,1997.386 
	4216.241,1996.848 4216.241,1996.527 4216.477,1996.696 4217.333,1996.158 4217.333,1995.841 4217.566,1996.011 4218.425,1995.472 
	4218.425,1995.152 4218.66,1995.323 4219.518,1994.783 4219.518,1994.465 4219.753,1994.635 4220.609,1994.097 4220.609,1993.815 
	4221.727,1994.623 4221.727,1993.92 4225.116,1991.787 4227.879,1990.047 4231.321,1994.654 4231.303,1994.784 4231.552,1994.962 
	4235.121,1999.738 4238.333,2002.093 4238.333,2002.094 4238.502,2002.217 4238.54,2002.244 4238.54,2002.244 4239.182,2002.709 
	4273.271,1981.25 4273.271,1979.892 4273.641,1979.659 4273.641,1978.73 4269.592,1975.797 4269.592,1974.97 4269.96,1974.738 
	4269.96,1973.81 4265.912,1970.876 4265.912,1970.047 4266.279,1969.815 4266.279,1968.887 4263.665,1966.993 4263.8,1966.908 
	4263.8,1966.811 4263.871,1966.811 4263.871,1966.642 4264.034,1966.76 4264.893,1966.222 4264.893,1965.902 4265.128,1966.071 
	4265.984,1965.533 4265.984,1965.216 4266.219,1965.385 4267.076,1964.847 4267.076,1964.527 4267.312,1964.698 4268.168,1964.157 
	4268.168,1963.84 4268.404,1964.01 4269.26,1963.472 4269.26,1963.151 4269.497,1963.322 4270.354,1962.783 4270.354,1962.466 
	4270.59,1962.635 4271.443,1962.096 4271.443,1961.777 4271.679,1961.948 4272.536,1961.409 4272.536,1961.091 4272.772,1961.262 
	4273.628,1960.721 4273.628,1960.402 4273.863,1960.572 4274.721,1960.034 4274.721,1959.717 4274.955,1959.887 4275.812,1959.347 
	4275.812,1959.028 4276.047,1959.197 4276.904,1958.659 4276.904,1958.341 4277.139,1958.511 4277.997,1957.973 4277.997,1957.654 
	4278.231,1957.824 4279.088,1957.283 4279.088,1956.967 4279.322,1957.136 4280.182,1956.599 4280.182,1956.279 4280.417,1956.449 
	4281.271,1955.908 4281.271,1955.59 4281.508,1955.761 4282.365,1955.223 4282.365,1954.904 4282.599,1955.074 4283.457,1954.535 
	4283.457,1954.217 4283.691,1954.386 4284.549,1953.848 4284.549,1953.529 4284.783,1953.698 4285.641,1953.16 4285.641,1952.841 
	4285.879,1953.013 4286.732,1952.472 4286.732,1952.244 4287.291,1952.648 4288.027,1952.186 4288.921,1952.158 4288.921,1951.623 
	4291.473,1950.017 4291.473,1941.404 4293.166,1940.338 4292.177,1938.768 4292.177,1938.657 4292.049,1938.564 4291.033,1936.953 
	4290.477,1937.304 4289.732,1936.764 4289.731,1918.604 4289.372,1910.894 4289.392,1910.811 "/>
<polygon points="6671.191,4018.827 6671.982,4018.074 6671.221,4016.522 6671.229,4000.822 6671.23,4000.82 6671.215,3994.581 
	6671.251,3994.547 6671.056,3991.2 6669.674,3990.532 6625.844,3934.142 6596.812,3945.558 6589.104,3948.162 6589.104,3946.326 
	6578.501,3941.205 6570.969,3948.317 6570.969,3950.984 6571.175,3951.084 6571.175,3962.398 6543.027,3988.848 6540.761,3979.631 
	6530.295,3969.484 6530.295,3968.984 6531.174,3968.154 6531.174,3966.145 6530.75,3965.939 6531.174,3965.539 6531.174,3963.529 
	6530.295,3963.105 6530.295,3959.66 6531.354,3955.179 6531.395,3951.162 6516.688,3944.062 6516.688,3943.167 6516.061,3943.759 
	6514.45,3942.981 6508.721,3948.392 6507.17,3946.268 6507.275,3945.769 6506.929,3944.355 6506.789,3944.024 6506.856,3943.95 
	6506.666,3943.18 6506.785,3942.882 6506.6,3941.807 6506.688,3939.673 6506.421,3938.585 6505.819,3937.649 6505.774,3937.551 
	6505.771,3937.396 6505.935,3936.416 6505.67,3935.352 6505.533,3935.22 6504.868,3931.223 6502.576,3935.018 6502.405,3934.824 
	6502.575,3935.021 6502.563,3935.039 6502.659,3935.117 6502.232,3935.23 6502.107,3935.118 6501.973,3935.299 6501.872,3935.325 
	6501.876,3935.428 6501.806,3935.521 6501.803,3935.521 6501.803,3935.525 6501.327,3936.16 6500.545,3937.595 6500.892,3939.154 
	6500.974,3939.543 6500.979,3939.542 6501.037,3939.807 6501.223,3940.12 6501.114,3941.568 6501.177,3942.052 6500.623,3942.639 
	6500.834,3943.486 6500.177,3944.978 6500.444,3946.159 6497.67,3950.053 6461.156,3988.56 6464.729,4003.085 6464.393,4004.324 
	6464.693,4005.55 6452.154,4004.251 6449.959,4006.324 6443.172,4003.05 6431.105,4014.443 6431.105,4017.82 6432.08,4022.401 
	6432.08,4023.206 6385.581,4067.115 6385.581,4069.043 6386.895,4069.678 6386.895,4071.085 6387.018,4071.242 6386.975,4071.365 
	6386.975,4072.459 6387.077,4072.779 6386.973,4073.137 6386.973,4079.699 6387.035,4080.45 6386.911,4081.285 6386.963,4081.867 
	6386.76,4082.388 6386.76,4087.778 6380.458,4093.729 6380.458,4100.634 6356.829,4122.943 6357.941,4123.48 6357.941,4124.645 
	6359.786,4125.535 6359.786,4132.367 6359.908,4132.522 6359.867,4132.643 6359.867,4133.733 6359.969,4134.055 6359.865,4134.416 
	6359.865,4140.977 6359.928,4141.728 6359.803,4142.562 6359.855,4143.143 6359.65,4143.665 6359.65,4149.422 6359.567,4149.662 
	6357.941,4151.195 6357.941,4155.672 6358.324,4155.672 6358.324,4155.676 6358.324,4156.202 6358.215,4156.202 6358.215,4156.255 
	6358.12,4156.296 6358.215,4156.514 6358.215,4156.93 6358.215,4157.622 6358.215,4158.792 6358.215,4159.484 6358.215,4160.192 
	6358.151,4160.414 6356.834,4161.662 6357.941,4162.198 6357.941,4162.297 6431.398,4197.771 6428.427,4200.578 6428.426,4202.777 
	6424.384,4206.596 6424.384,4208.794 6420.342,4212.612 6420.342,4216.4 6456.928,4234.069 6458.076,4232.979 6473.72,4218.208 
	6515.208,4238.243 6515.208,4239.698 6516.229,4238.736 6516.714,4238.971 6517.198,4238.514 6517.553,4238.685 6517.553,4238.179 
	6608.787,4152.028 6609.141,4152.199 6609.141,4151.676 6609.521,4151.237 6609.521,4151.182 6610.501,4150.153 6610.025,4149.915 
	6612.212,4147.851 6615.395,4149.388 6635.787,4130.133 6635.787,4125.589 6636.216,4125.185 6636.216,4101.151 6671.191,4068.125 
	"/>
<polygon points="5854.48,1352.375 5857.729,1350.33 5829.976,1306.936 5812.935,1279.686 5769.149,1285.348 5759.379,1278.27 
	5729.841,1264.292 5700.585,1314.94 5702.316,1317.085 5702.316,1326.96 5670.814,1346.79 5674.73,1348.43 5674.73,1361.605 
	5641.457,1382.551 5642.694,1385.156 5645.562,1387.191 5645.562,1400.745 5642.814,1402.475 5642.814,1410.364 5654.354,1418.723 
	5654.354,1418.753 5675.911,1434.369 5673.639,1435.8 5673.639,1437.069 5670.652,1438.948 5670.652,1440.218 5667.667,1442.097 
	5667.667,1443.942 5668.148,1444.291 5668.148,1444.972 5690.67,1461.286 5692.479,1460.154 5692.479,1460.151 5695.215,1458.429 
	5695.215,1457.728 5695.447,1457.581 5695.447,1457.015 5695.464,1457.004 5695.464,1457.003 5698.201,1455.28 5698.201,1454.582 
	5698.434,1454.436 5698.434,1453.864 5698.449,1453.854 5698.449,1453.854 5700.78,1452.387 5712.816,1461.106 5712.816,1461.106 
	5739.252,1480.256 5853.009,1408.648 5853.009,1403.276 5854.48,1402.35 "/>
<polygon points="6099.646,1927.053 6024.554,1601.086 5921.165,1611.953 5921.818,1570.438 5921.818,1565.92 5432.796,1562.399 
	5432.119,1605.118 5333.331,1592.3 5241.204,1916.09 5241.204,1920.645 5241.869,1920.731 5241.869,2000.654 5241.869,2001.973 
	5241.869,2004.974 5414.306,2027.349 5487.241,1771.009 5487.522,1771.011 5487.68,1771.234 5487.68,1771.012 5583.302,1771.7 
	5584.76,1780.161 5585.41,1782.371 5593.418,1782.429 5597.246,1802.446 5647.43,1802.808 5647.949,1805.309 5648.097,1805.751 
	5651.921,1827.096 5658.014,1827.142 5658.014,1827.142 5659.254,1827.15 5659.503,1827.152 5659.503,1827.152 5690.669,1827.376 
	5690.669,1827.376 5698.235,1827.431 5703.353,1803.21 5753.656,1803.573 5758.462,1783.617 5765.081,1783.665 5766.255,1781.298 
	5766.189,1781.104 5767.857,1773.529 5865.59,1774.232 5887.881,1870.942 5887.767,1870.968 5887.887,1870.968 5925.462,2033.988 
	6099.021,2015.745 6099.021,2012.743 6099.021,2011.393 6099.021,1997.787 6099.124,1997.777 6099.124,1931.488 6099.646,1931.433 
	"/>
<polygon points="7965.229,3027.393 7971.358,3023.465 7972.764,3020.504 7881.167,2954.148 7855.836,2960.109 7800.789,2920.232 
	7788.785,2927.789 7580.406,3058.961 7561.807,3070.669 7561.807,3070.668 7527.329,3092.371 7527.33,3092.372 7504.13,3106.976 
	7507.086,3109.117 7507.086,3135.182 7507.086,3136.475 7507.086,3149.77 7507.004,3149.821 7507.004,3149.821 7506.938,3149.862 
	7505.034,3149.718 7505.464,3150.791 7495.585,3157.011 7498.532,3157.238 7498.532,3157.26 7498.523,3157.26 7498.523,3172.202 
	7498.523,3174.119 7497.353,3174.862 7498.523,3175.71 7498.523,3181.916 7505.408,3186.904 7507.086,3188.121 7507.086,3193.863 
	7557.885,3230.663 7557.885,3230.738 7557.94,3230.703 7628.396,3281.743 7820.3,3160.942 7820.453,3161.052 7820.453,3160.846 
	7847.065,3144.094 7897.719,3112.209 7897.73,3112.201 7897.73,3112.201 7965.457,3069.568 7965.457,3044.753 7965.171,3044.024 
	7965.171,3027.449 "/>
<polygon points="7853.105,2668.157 7853.105,2633.817 7679.146,2507.797 7679.146,2442.609 7603.604,2387.885 7555.456,2418.191 
	7490.26,2370.962 7484.753,2374.429 7281.477,2227.169 6905.163,2464.052 6905.163,2582.794 7027.236,2671.229 7027.236,2706.553 
	6930.641,2636.576 6930.641,2629.903 6924.763,2625.646 6919.836,2628.748 6918.873,2628.052 6917.779,2628.739 6913.42,2625.581 
	6906.854,2629.716 6906.854,2635.618 6876.986,2654.419 6876.986,2650.442 6873.427,2647.863 6870.379,2649.782 6870.089,2649.67 
	6868.832,2648.759 6868.832,2649.178 6856.952,2644.531 6844.764,2664.645 6843.699,2663.872 6843.699,2666.577 6840.691,2668.47 
	6840.691,2677.265 6765.002,2724.91 6760.642,2721.753 6754.285,2725.755 6754.285,2732.96 6753.584,2733.401 6753.584,2740.703 
	6753.826,2740.878 6753.826,2742.896 6754.175,2743.149 6754.175,2776.802 6753.826,2777.021 6753.825,2786.461 6759.469,2790.55 
	6765.491,2786.759 6932.523,2907.762 6932.523,2915.867 6938.201,2919.979 6944.187,2916.212 6953.402,2922.888 6953.402,2957.301 
	6957.849,2960.521 6962.863,2957.363 6964.793,2956.149 6973.738,2962.63 6973.757,2963.499 6974.387,2963.1 6983.5,2969.702 
	6983.5,2970.637 6984.188,2970.201 6990.101,2974.484 6990.119,2975.315 6990.729,2974.939 6999.945,2981.616 6999.964,2982.461 
	7000.581,2982.076 7002.26,2983.293 7002.26,2992.693 7006.705,2995.913 7010.862,2993.297 7013.336,2995.088 7017.572,2992.421 
	7017.572,2989.073 7032.123,2979.913 7060.467,3000.448 7060.467,3008.554 7066.373,3012.831 7072.358,3009.062 7150.68,3065.8 
	7150.68,3073.905 7156.534,3078.146 7162.521,3074.379 7184.477,3090.284 7184.477,3098.438 7190.121,3102.525 7196.143,3098.735 
	7201.463,3102.59 7207.57,3098.745 7207.57,3091.547 7348.711,3002.697 7354.032,3006.551 7360.348,3002.575 7360.348,2995.371 
	7361.049,2994.931 7361.049,2985.489 7360.699,2985.236 7360.699,2951.587 7361.049,2951.366 7361.049,2949.335 7361.291,2949.183 
	7361.291,2941.881 7355.414,2937.622 7350.486,2940.725 7297.143,2902.08 7323.164,2885.7 7492.252,3008.192 7868.633,2771.268 
	7868.634,2679.406 "/>
<polygon points="6721.98,2089.266 6720.48,2089.266 6721.798,2088.547 6663.488,1981.608 6604.582,2004.295 6605.121,2005.695 
	6604.322,2004.426 6574.574,2023.151 6526.594,1988.393 6526.594,1976.748 6528.979,1975.247 6528.979,1973.038 6528.988,1972.934 
	6529.692,1972.491 6517.236,1948.083 6504.754,1954.458 6491.372,1962.878 6468.625,1946.398 6468.625,1934.754 6471.009,1933.254 
	6471.012,1931.044 6471.022,1930.931 6471.723,1930.49 6459.27,1906.089 6446.785,1912.464 6433.404,1920.884 6423.956,1914.039 
	6423.956,1910.767 6419.719,1907.696 6373.77,1893.562 6368.077,1891.785 6316.9,1971.97 6316.9,1977.106 6319.751,1979.173 
	6319.751,2118.865 6340.032,2133.557 6326.915,2156.913 6327.623,2157.426 6327.637,2157.582 6327.637,2159.733 6329.96,2161.417 
	6329.96,2177.131 6313.272,2187.636 6306.533,2182.754 6306.533,2146.414 6310.876,2143.68 6309.293,2140.83 6309.709,2140.568 
	6309.71,2135.359 6277.15,2076.821 6277.15,2040.622 6277.73,2040.257 6277.73,2038.245 6277.152,2037.828 6277.152,2033.921 
	6277.611,2033.631 6277.611,2033.368 6278.43,2032.854 6277.39,2030.855 6264.307,2021.377 6264.307,2021.256 6264.218,2021.312 
	6256.202,2015.505 6250.182,2019.293 6248.454,2020.997 6249.592,2021.821 6249.592,2022.135 6250.05,2022.467 6250.05,2026.248 
	6249.473,2026.611 6249.473,2028.622 6250.053,2029.042 6250.053,2058.757 6218.561,2069.746 6213.293,2073.017 6213.293,2076.271 
	6186.064,2093.411 6186.064,2090.916 6181.134,2087.344 6119.817,2069.402 6118.443,2068.971 6056.219,2165.535 6056.219,2171.463 
	6057.396,2172.315 6057.397,2174.405 6043.112,2183.398 6033.072,2186.909 6027.805,2190.18 6027.805,2197.111 6031.723,2195.744 
	6031.723,2314.311 6031.348,2314.637 6031.348,2320.786 6031.723,2321.06 6031.723,2335.862 6044.043,2344.787 6044.043,2347.428 
	6044.409,2347.693 6044.409,2362.431 6078.103,2386.84 6078.104,2386.838 6080.068,2388.261 6099.979,2385.31 6114.312,2395.692 
	6114.312,2397.115 6120.065,2401.284 6122.556,2399.717 6153.393,2422.056 6153.393,2425.428 6159.147,2429.597 6161.639,2428.028 
	6180.711,2441.846 6176.691,2444.376 6176.691,2448.299 6177.121,2448.609 6177.121,2463.477 6185.413,2469.483 6185.723,2469.289 
	6217.523,2492.328 6217.523,2492.746 6225.816,2498.754 6243.715,2487.487 6274.59,2509.854 6274.59,2513.227 6280.343,2517.395 
	6282.835,2515.827 6313.768,2538.234 6313.768,2541.607 6319.521,2545.775 6320.572,2545.113 6327.833,2550.373 6395.627,2507.696 
	6418.898,2489.23 6425.958,2484.787 6449.418,2537.402 6492.262,2568.439 6495.421,2570.77 6531.371,2548.14 6530.572,2546.87 
	6532.072,2546.87 6532.072,2532.938 6532.432,2532.71 6532.432,2531.508 6562.907,2512.324 6562.907,2505.326 6592.369,2486.781 
	6592.369,2471.968 6592.745,2471.731 6592.745,2466.174 6592.68,2465.464 6592.369,2465.172 6592.369,2353.483 6596.711,2350.75 
	6595.682,2348.894 6596.539,2348.354 6596.539,2343.147 6583.422,2319.564 6590.578,2315.06 6604.008,2324.788 6634.443,2305.629 
	6652.957,2309.517 6676.981,2294.396 6676.182,2293.126 6677.682,2293.126 6677.682,2279.198 6678.027,2278.98 6678.027,2278.193 
	6703.805,2261.968 6703.805,2243.786 6721.98,2232.347 "/>
<polygon points="7085.645,1984 7083.969,1982.786 7083.969,1978.184 7085.537,1977.197 7085.537,1973.151 7002.809,1913.222 
	6822.532,2026.703 6822.532,2030.749 6824.436,2032.127 6824.436,2067.385 6848.082,2084.515 6848.082,2084.516 6905.575,2126.167 
	6912.952,2121.524 6912.952,2119.572 6947.621,2097.749 6949.062,2098.792 6954.55,2095.338 6954.55,2093.653 7010.562,2058.395 
	7011.807,2059.297 7017.85,2055.492 7017.85,2053.809 7073.269,2018.924 7074.512,2019.824 7083.969,2013.871 7083.969,1989.1 
	7085.645,1988.045 "/>
<polygon points="7215.832,1480.403 7217.076,1479.565 7148.741,1378.202 7148.111,1377.496 7147.331,1376.338 7146.443,1376.898 
	7078.11,1379.254 7075.175,1381.101 7073.474,1385.112 7074.596,1385.073 7074.596,1387.635 6952.314,1464.607 6952.309,1461.565 
	6952.801,1459.273 6952.836,1458.833 6952.655,1456.315 6952.295,1455.201 6952.276,1445.973 6952.755,1443.778 6952.803,1443.252 
	6952.622,1440.732 6952.264,1439.619 6952.244,1430.396 6952.722,1428.193 6952.77,1427.671 6952.589,1425.153 6952.23,1424.041 
	6952.211,1414.802 6952.688,1412.609 6952.736,1412.088 6952.569,1409.668 6952.198,1408.474 6952.179,1399.236 6952.656,1397.026 
	6952.705,1396.501 6952.536,1394.088 6952.165,1392.891 6952.146,1383.637 6952.623,1381.443 6952.672,1380.917 6952.505,1378.509 
	6952.133,1377.312 6952.112,1368.063 6952.591,1365.856 6952.639,1365.336 6952.638,1364.792 6952.461,1362.84 6952.1,1361.719 
	6952.081,1352.471 6952.558,1350.273 6952.605,1349.752 6952.44,1347.349 6952.066,1346.151 6952.047,1336.892 6952.524,1334.689 
	6952.574,1334.165 6952.408,1331.771 6952.034,1330.567 6952.015,1321.309 6952.492,1319.107 6952.541,1318.581 6952.364,1316.099 
	6952,1314.973 6951.979,1304.786 6952.359,1302.875 6952.148,1299.881 6951.942,1299.353 6951.689,1296.608 6950.597,1293.575 
	6948.794,1290.951 6946.888,1289.22 6946.431,1288.857 6944.347,1287.6 6941.915,1286.625 6939.286,1286.001 6936.45,1285.731 
	6933.798,1285.844 6931.126,1286.31 6928.623,1287.122 6926.375,1288.261 6923.93,1290.12 6922.382,1291.88 6921.841,1292.677 
	6920.856,1294.599 6920.493,1295.609 6920.063,1297.7 6919.946,1298.744 6919.944,1299.379 6919.552,1301.346 6919.572,1301.633 
	6919.559,1301.634 6919.613,1302.216 6919.763,1304.342 6919.932,1304.77 6919.91,1314.736 6919.905,1314.744 6919.407,1317.068 
	6919.372,1318.034 6919.547,1319.989 6919.896,1320.975 6919.877,1330.642 6919.388,1332.563 6919.339,1333.616 6919.515,1335.575 
	6919.863,1336.559 6919.844,1345.902 6919.341,1348.235 6919.306,1349.212 6919.481,1351.162 6919.831,1352.147 6919.812,1361.478 
	6919.309,1363.815 6919.272,1364.794 6919.438,1366.657 6919.798,1367.693 6919.778,1377.068 6919.276,1379.397 6919.241,1379.829 
	6919.405,1382.242 6919.766,1383.28 6919.746,1392.646 6919.242,1394.981 6919.207,1395.932 6919.386,1397.925 6919.732,1398.914 
	6919.713,1408.219 6919.224,1410.476 6919.175,1410.994 6919.341,1413.417 6919.7,1414.466 6919.68,1423.822 6919.177,1426.145 
	6919.142,1427.124 6919.32,1429.098 6919.667,1430.078 6919.647,1439.377 6919.158,1441.64 6919.108,1442.707 6919.276,1444.591 
	6919.634,1445.62 6919.614,1454.994 6919.111,1457.311 6919.076,1458.261 6919.243,1460.176 6919.602,1461.21 6919.582,1470.55 
	6919.078,1472.892 6919.043,1473.855 6919.212,1475.765 6919.716,1477.22 6919.936,1482.156 6914.331,1482.35 6911.395,1484.197 
	6909.699,1488.201 6910.816,1488.162 6910.816,1492.16 6914.792,1496.32 6914.792,1538.938 6912.956,1540.454 6912.956,1544.152 
	6914.791,1545.548 6914.791,1552.207 6972.191,1593.79 6972.191,1593.79 7044.953,1646.499 7119.715,1599.437 7134.604,1610.224 
	7134.604,1610.226 7135.179,1610.641 7135.224,1610.673 7135.224,1610.673 7136.523,1611.61 7154.927,1600.025 7154.927,1596.547 
	7152.074,1594.48 7152.074,1592.596 7149.221,1590.528 7149.221,1588.644 7146.368,1586.577 7146.368,1584.691 7144.867,1583.604 
	7213.036,1540.693 7213.036,1533.994 7214.973,1532.589 7214.973,1528.766 7214.342,1528.35 7213.035,1527.336 7213.036,1490.553 
	7214.266,1492.377 7214.266,1488.299 7217.012,1486.571 7217.012,1480.604 7215.957,1480.604 "/>
<polygon fill="#6E6E6E" points="6449.418,2537.402 6425.958,2484.787 6418.898,2489.23 6395.627,2507.696 6364.76,2527.127 
	6355.331,2533.062 6355.212,2533.137 6354.915,2533.324 6354.916,2533.325 6287.599,2575.699 6265.54,2559.839 6265.546,2551.72 
	6265.381,2551.72 6265.381,2551.706 6265.546,2551.704 6265.393,2535.601 6266.229,2535.071 6264.255,2531.619 6261.453,2529.592 
	6259.412,2530.15 6248.925,2536.797 6229.557,2523.745 6228.521,2522.996 6226.498,2525.104 6227.58,2526.143 6226.249,2525.45 
	6206.32,2563.791 6192.389,2572.619 6193.911,2573.715 6193.91,2634.673 6158.105,2657.21 6156.777,2654.23 6149.717,2658.675 
	6112.236,2688.422 6128.713,2726.468 6180.044,2763.651 6180.044,2925.48 6192.368,2934.411 6195.609,2937.198 6195.609,2941.429 
	6491.484,2754.732 6492.216,2754.732 6492.262,2568.439 "/>
<polygon points="6697.488,3138.505 6687.152,3131.018 6758.395,3086.172 6758.395,2982.896 6762.863,2980.083 6759.418,2977.588 
	6759.418,2972.868 6754.407,2969.238 6754.446,2968.829 6754.123,2969.032 6722.021,2945.775 6722.021,2878.833 6725.354,2876.735 
	6626.102,2698.265 6586.936,2711.945 6581.567,2699.001 6570.791,2705.785 6558.248,2649.032 6555.326,2649.001 6536.221,2727.547 
	6529.853,2731.555 6529.945,2731.778 6529.826,2731.894 6526.962,2732.895 6195.609,2941.429 6195.609,2937.198 6192.368,2934.411 
	6180.044,2925.48 6180.044,2763.651 6128.713,2726.468 6109.699,2682.562 6033.182,2730.729 6033.182,2719.868 6033.931,2719.396 
	6032.29,2716.532 6030.093,2714.934 6028.372,2715.356 6021.174,2719.888 6007.697,2710.856 6006.657,2710.1 6004.965,2711.864 
	6006.046,2712.901 6004.717,2712.209 5990.703,2739.074 5980.411,2745.551 5981.814,2746.571 5981.814,2763.063 5838.022,2853.578 
	5837.994,2853.11 5830.582,2847.409 5838.749,2842.267 5837.102,2839.399 5834.906,2837.799 5833.186,2838.224 5825.986,2842.755 
	5812.512,2833.723 5811.473,2832.967 5809.778,2834.728 5810.858,2835.768 5809.529,2835.074 5795.516,2861.939 5785.229,2868.414 
	5786.628,2869.435 5786.628,2885.93 5782.512,2888.521 5781.574,2889.282 5730.547,2921.41 5730.331,2921.253 5730.331,2918.73 
	5731.234,2918.161 5730.504,2912.833 5727.349,2910.557 5689.771,2933.879 5689.069,2933.37 5686.652,2934.868 5684.687,2940.076 
	5682.037,2941.744 5682.037,2969.267 5680.316,2970.35 5680.316,3119.065 5692.524,3127.909 5696.307,3125.527 5696.307,3140.569 
	5728.95,3164.219 5747.701,3164.52 5747.701,3167.881 5760.159,3176.905 5764.458,3174.199 5766.911,3175.978 5772.219,3172.637 
	5960.732,3309.203 5960.732,3335.72 5970.171,3342.557 5968.976,3344.772 5968.832,3347.55 5968.848,3347.587 5968.848,3349.95 
	5969.85,3349.95 5969.926,3350.129 5968.967,3350.536 5969.935,3352.819 5971.876,3354.765 6041.683,3405.357 6044.308,3406.76 
	6047.569,3407.607 6051.157,3407.729 6054.303,3407.119 6057.213,3405.84 6057.383,3405.735 6069.573,3414.566 6077.596,3414.758 
	6093.029,3405.042 6289.986,3547.724 6289.986,3560.729 6302.444,3569.754 6306.102,3567.451 6306.102,3582.324 6338.746,3605.973 
	6357.621,3606.275 6357.621,3609.726 6369.83,3618.569 6374.128,3615.862 6376.706,3617.731 6393.407,3607.094 6375.034,3619.646 
	6375.034,3621.465 6381.027,3625.807 6381.027,3625.807 6387.856,3630.754 6387.952,3630.622 6388.678,3631.147 6498.338,3562.119 
	6497.539,3560.85 6498.339,3562.119 6520.723,3548.028 6520.723,3546.673 6539.768,3534.684 6540.69,3535.352 6543.669,3533.477 
	6543.669,3525.952 6533.582,3518.645 6761.906,3374.919 6761.906,3231.009 6719.79,3124.467 "/>
<path d="M5421.676,3799.61l-1.621-5.168l-2.579-4.979l-3.516-4.72l-4.421-4.392l-1.212-0.916v-1.521l0.577-0.234l-0.577-0.653
	v-10.755l0.576-0.234l-0.241-0.273l0.029-0.002l-0.18-0.203l1.084-0.053l-1.269-1.431v-26.311l-0.448-0.506v-0.7l-0.416,0.23
	l-0.864-0.975l-1.04,0.544l-3.098,1.834l-1.443,0.997l-1.582,1.206l-1.659,1.413l-1.592,1.537l-1.611,1.801l-0.603,0.809l-0.92,0.23
	l-0.166,0.149l-0.725-0.176l-0.088,0.015l-0.008-0.053l-0.328-0.509l-0.002-0.172l-0.103-0.439l-0.1-0.192l-1.013-1.23l-0.197,0.099
	l-0.771-1.544l0.077-1.219l-0.406,0.561l-1.419-2.256l-0.527-0.61l0.064-0.06l-0.322-0.228l-1.067-0.933l0.012-0.004l-0.547-0.882
	l0.155-0.276l0.081-0.659l-0.079-0.414l-0.434-0.636l0.551-1.662h-1.409l0.013-0.068l-0.063,0.068h-0.621l-0.148,0.008l-0.123,0.035
	l-0.082-0.058l-0.756-0.125l-0.379,0.062l-0.457,0.201l-0.08,0.075l-0.021-0.097l-0.738-0.983l-0.032-2.021l0.025-0.023v-0.42
	l0.806-1.151l-2.247-1.129l-0.969-1.456l-0.547-0.639l0.255-0.518l0.059-0.467l-0.007-0.186l-0.205-0.697l-0.124-0.143l0.011-0.007
	l-0.023-0.008l-0.061-0.069l-0.198-0.837l0.016-0.099l-0.159-0.762l-0.086-0.105l-0.01-0.041l-0.017,0.009l-0.341-0.418
	l-0.111-0.057l-0.002-0.673l-0.829-0.415l-0.292,0.584h-0.088l-0.358,0.039l-0.044,0.031l0.146-0.385l-0.6-0.122l-0.336,0.06
	l-0.106-0.118l-0.187,0.169l-0.031,0.006l-0.893,0.734l-0.123,0.045l-0.172,0.172l0.014,0.014l-0.149,0.123l-0.031,0.056
	l-1.742-0.865l1.27,2.176l-0.368,0.575l-0.024,0.159l-0.271,0.247l-0.571-0.287l-2.208,2l0.373,0.911v0.011l-0.262-0.28l-0.487-0.27
	l-1.333-1.44l-2.189,2.02v-10.951l-3.741-0.474l-0.313,1.308l-1.274,6.102l-0.688,4.107l-0.388,2.891l-0.198-0.098l-0.193-0.76
	l-0.662-0.799l-1.615-0.956l-2.562,2.359l0.197,0.201l-0.332,0.307l-0.123,0.23l-0.12,0.479l-3.994-2.003l-1.508,3.567l-0.229-0.069
	l-2.25,4.79l-1.196,2.761v8.79l-6.087-1.291l-7.518-0.89l-7.634-0.228l-7.459,0.428l-7.385,1.065l-7.15,1.699l-6.823,2.325
	l-2.808,1.29v-8.15l-9.405-4.674l-3.247-1.062l-2.334,5.013l-0.206,0.534l0.002,0.008l-0.913,2.011v27.437l9.348,4.672l6.161-5.625
	l3.14-1.905l5.27-2.431l5.647-1.931l5.941-1.416l6.15-0.893l6.272-0.36l6.309,0.185l6.258,0.734l6.125,1.293l2.346,0.736v0.071
	l0.826,0.413v1.211l5.983,2.989l0.857-0.781l1.684,0.841l2.097-1.913l0.791,0.396l0.516-0.468v0.727l0.805,0.406v0.459l1.213,0.153
	l0.107,0.055l0.039-0.036l2.334,0.296l0.52-1.873v-0.809l0.12-0.109l-0.025-0.918l2.461-8.872l0.368,0.046l0.496-1.79v-1.692
	l0.323-1.144l-0.323-0.04v-10.46l0.318-1.132l-0.123-0.016l0.138-0.293l0.546-0.942l-0.879-0.107v-4.325l0.468-0.155l0.64-0.128
	l0.981-0.065l1.253,0.036l1.625,0.212l0.922,0.201l1.026,0.296l1.023,0.374l1.118,0.507l1.087,0.597l1.061,0.676l1.023,0.73
	l0.971,0.762l1.728,1.502l1.856,1.84l1.39,1.6l0.69,0.921l0.643,0.941l1.129,1.862l0.889,1.668l0.513,1.117l-0.284,0.258
	l0.523,0.263l0.456,0.993l0.57,0.283v31.322l1.653,1.867l0.437-0.178v2.709l0.826,0.413v1.209l5.984,2.992l0.856-0.782l1.686,0.843
	l0.042-0.038l1.625,1.221l3.55,3.509l2.392,3.188l-3.083-1.009l-2.335,5.012l-0.202,0.523l0.002,0.008l-0.917,2.022v27.437
	l9.349,4.671l6.755-6.161v-2.572l1.305-1.895l2.385-5.104l1.375-5.242l0.365-5.396v-9.778L5421.676,3799.61z"/>
<path fill="#ABABAB" d="M5606.911,2801.216l-0.639-6.456c-0.007-0.064-0.018-0.129-0.032-0.191l-1.486-6.408
	c-0.014-0.062-0.032-0.122-0.054-0.181l-2.335-6.321c-0.021-0.058-0.046-0.113-0.073-0.167l-3.187-6.19
	c-0.026-0.052-0.057-0.102-0.089-0.149l-4.043-6.021c-0.03-0.045-0.062-0.089-0.098-0.131l-4.896-5.811
	c-0.033-0.039-0.068-0.076-0.105-0.112l-5.757-5.559c-0.034-0.033-0.07-0.064-0.108-0.095l-6.618-5.267
	c-0.034-0.027-0.071-0.054-0.108-0.079l-7.414-4.886c-0.035-0.022-0.071-0.044-0.107-0.064l-7.92-4.313
	c-0.035-0.019-0.07-0.036-0.106-0.052l-8.365-3.736c-0.033-0.016-0.066-0.029-0.102-0.041l-8.745-3.162
	c-0.032-0.013-0.065-0.022-0.099-0.032l-9.157-2.608l-9.409-2.019l-9.598-1.433l-9.723-0.844l-9.787-0.253l-9.786,0.339
	l-9.726,0.933l-7.907,1.258c-0.027-0.043-0.057-0.083-0.088-0.122c-0.027-0.035-0.056-0.069-0.086-0.103
	c-0.046-0.049-0.096-0.092-0.146-0.134c-0.025-0.021-0.045-0.047-0.071-0.065l-0.576-0.413c-0.673-0.484-1.609-0.328-2.093,0.345
	c-0.03,0.042-0.037,0.092-0.062,0.136l-2.263,0.462l-3.789,0.875l-3.75,0.974l-3.707,1.069l-3.662,1.167l-3.612,1.264l-3.557,1.362
	l-3.499,1.46l-3.436,1.561l-3.369,1.658l-3.298,1.758l-2.337,1.347l-34.153-24.74c-0.669-0.484-1.608-0.337-2.095,0.335
	c-0.21,0.29-0.295,0.629-0.276,0.96l-249.931,157.325c-0.002,0.002-0.004,0.003-0.007,0.005l-0.019,0.012
	c-0.012,0.007-0.02,0.018-0.03,0.025c-0.081,0.054-0.157,0.116-0.229,0.188c-0.027,0.027-0.052,0.058-0.077,0.087
	c-0.026,0.031-0.056,0.057-0.08,0.09c-0.022,0.031-0.037,0.065-0.057,0.098c-0.021,0.034-0.042,0.067-0.06,0.103
	c-0.042,0.082-0.074,0.165-0.101,0.251c-0.007,0.022-0.017,0.043-0.022,0.066c-0.027,0.113-0.042,0.228-0.043,0.343
	c-0.001,0.007-0.003,0.013-0.003,0.02v1.046c0,0.48,0.23,0.933,0.62,1.215l32.409,23.479l2.31,1.625l-2.842,2.363
	c-0.014,0.011-0.031,0.017-0.045,0.028l-8.179,6.938c-0.051,0.043-0.1,0.09-0.145,0.141l-6.694,7.441
	c-0.049,0.055-0.094,0.112-0.135,0.174l-5.204,7.843c-0.044,0.065-0.082,0.136-0.115,0.208l-3.709,8.146
	c-0.035,0.076-0.063,0.156-0.085,0.237l-1.523,5.762l6.453,4.672l1.907,1.231l-1.911,1.203l-0.042,0.035v12.115l86.543,62.695
	l2.605,0.239c0.041,0.003,0.082,0.006,0.123,0.006l12.534,0.119c0.045,0.002,0.082-0.001,0.122-0.004l12.486-0.9
	c0.041-0.003,0.083-0.008,0.124-0.015l12.293-1.928c0.043-0.006,0.085-0.015,0.128-0.025l11.952-2.955
	c0.045-0.011,0.089-0.024,0.133-0.039l11.46-3.988c0.047-0.017,0.094-0.035,0.139-0.057l10.024-4.651l30.088,21.797
	c0.258,0.188,0.566,0.285,0.88,0.285c0.114,0,0.229-0.013,0.344-0.04l6.977-1.641c0.116-0.023,0.23-0.062,0.34-0.115
	c0.059-0.028,0.114-0.06,0.168-0.094l250.549-157.714c0.444-0.273,0.716-0.758,0.716-1.279v-1.047c0-0.142-0.021-0.28-0.06-0.412
	c0.25-0.624,0.06-1.358-0.509-1.771l-26.261-19.024l1.32-0.909l2.921-2.178l2.771-2.24l2.621-2.299l2.475-2.354l2.323-2.404
	l2.177-2.456l2.027-2.501l1.877-2.545l1.728-2.584l1.579-2.622l0.726-1.345c0.13-0.001,0.258-0.023,0.384-0.058
	c0.036-0.01,0.07-0.026,0.105-0.039c0.089-0.031,0.175-0.069,0.256-0.117c0.04-0.023,0.077-0.049,0.115-0.076
	c0.07-0.051,0.136-0.108,0.197-0.172c0.035-0.036,0.069-0.07,0.101-0.11c0.016-0.02,0.035-0.033,0.05-0.054
	c0.062-0.087,0.113-0.18,0.155-0.274c0.001-0.001,0.001-0.002,0.002-0.003l2.03-4.682c0.024-0.056,0.045-0.112,0.062-0.17
	l1.885-6.354c0.018-0.062,0.032-0.123,0.042-0.186l1.046-6.428c0.011-0.064,0.017-0.129,0.019-0.193l0.206-6.511v-1.046
	C5606.918,2801.314,5606.916,2801.265,5606.911,2801.216z"/>
</svg>
