<?xml version="1.0" encoding="utf-8"?>
<!-- Generator: Adobe Illustrator 23.1.0, SVG Export Plug-In . SVG Version: 6.00 Build 0)  -->
<svg version="1.1" id="campusMap" xmlns="http://www.w3.org/2000/svg" xmlns:xlink="http://www.w3.org/1999/xlink" x="0px" y="0px"
	 viewBox="0 0 8192 4500" style="enable-background:new 0 0 8192 4500;" xml:space="preserve">
<style type="text/css">
	.st0{filter:url(#Adobe_OpacityMaskFilter);}
	.st1{mask:url(#SVGID_1_);}
	.st2{fill:#6E6E6E;}
	.st3{fill:#ABABAB;}
</style>
<image style="overflow:visible;enable-background:new    ;" width="10000" height="4500" xlink:href="/wp-content/themes/gs_elms/images/Elms-campus3d-min.jpg"  transform="matrix(0.82 0 0 0.82 0 406.8)">
</image>
<defs>
	<filter id="Adobe_OpacityMaskFilter" filterUnits="userSpaceOnUse" x="535.5" y="1442.5" width="7583.9" height="2437.4">
		<feColorMatrix  type="matrix" values="1 0 0 0 0  0 1 0 0 0  0 0 1 0 0  0 0 0 1 0"/>
	</filter>
</defs>
<mask maskUnits="userSpaceOnUse" x="535.5" y="1442.5" width="7583.9" height="2437.4" id="SVGID_1_">
	<g class="st0">
	</g>
</mask>
<g class="st1">
	<polygon id="gaylord" points="1805.3,1838.2 1819.8,1826.4 1794.5,1809.9 1780.4,1801.7 1767.2,1812.4 1729.1,1840.9 
		1707.3,1828.8 1674.2,1854.2 1661.4,1864.3 1660.9,1864 1660.9,1861.6 1661.2,1861.4 1661.5,1861.1 1661.7,1860.4 1661.6,1860.2 
		1661.8,1859.9 1661.8,1859.6 1664.1,1857.8 1650.3,1843.3 1650.3,1842.9 1646.8,1840.9 1635.8,1849.6 1629.1,1845.7 1626.3,1844 
		1613.6,1836.7 1610.1,1839.5 1596.7,1831.8 1594.2,1833.8 1594.2,1834 1583.7,1846.3 1585.6,1847.4 1585.6,1847.5 1585.7,1847.7 
		1585.7,1847.9 1585.9,1848.6 1586.3,1848.8 1586.3,1858.7 1585.9,1859 1585.7,1859.7 1585.7,1859.8 1585.6,1860 1585.6,1860.8 
		1585.5,1860.9 1585.6,1861.6 1580.1,1866.7 1581.4,1873.8 1574.8,1870 1571.8,1872.4 1571.8,1872.7 1558.1,1888.7 1560.4,1890.1 
		1560.4,1890.4 1560.6,1890.7 1560.6,1891 1560.8,1891.7 1561.3,1892 1561.3,1892 1561.4,1892.1 1561.4,1896.4 1539.1,1919.9 
		1542.1,1921.6 1542.1,1943.4 1541.7,1943.7 1541.2,1944.3 1541.1,1944.9 1541.1,1946.1 1541.2,1946.9 1541.7,1947.3 1542.1,1947.6 
		1542.1,1948.4 1531.7,1956.7 1530.1,1957.8 1526.7,1961.2 1527.8,1961.8 1528.6,1963.2 1528.6,1963.4 1529.4,1963.8 1529.4,1963.9 
		1529.5,1964 1529.5,1966.1 1528.5,1966.8 1528.5,1968.5 1529,1968.8 1527.8,1969.4 1529.3,1970.3 1529.3,1974.7 1521.1,1981.2 
		1519.2,1981.2 1516.6,1983.2 1517.6,1985.4 1517.6,1987 1528.3,1993.2 1529.1,1993.6 1535.4,1997.3 1545.6,2003 1544.9,2003.6 
		1544.9,2005.3 1545.4,2005.5 1544.1,2006.2 1545.7,2007 1545.7,2015.1 1545,2015.7 1545,2017.3 1545.7,2017.7 1545.8,2017.9 
		1545.8,2019.1 1545.7,2019.3 1545.3,2019.6 1544.6,2020.9 1543.7,2021.7 1543.7,2030.2 1574.9,2048.2 1577.7,2046 1618,2069.2 
		1637.2,2054.1 1640.1,2055.8 1656.7,2042.7 1663.7,2046.7 1691.9,2024.4 1691.1,2023.4 1692.4,2023.4 1692.4,2014.5 1699.8,2008.6 
		1723.9,2006.7 1741.2,1993 1740.4,1992 1741.6,1992 1741.6,1964 1742.1,1963.7 1742.6,1963.3 1742.8,1962.3 1742.8,1961.7 
		1799.8,1916.7 1799,1915.7 1800.2,1915.7 1800.2,1887.6 1801,1887 1803,1884 1781.3,1870.9 1747.7,1851.5 1781.5,1824.5 	">
	<title>Gaylord Living Learning Community</title>
	</polygon>
	<polygon id="bluehouse" points="760.6,1614.3 752.4,1608.4 751.7,1607.9 744.8,1603.9 744.8,1595.1 745.1,1594.9 745.1,1594.7 
		746.3,1593.9 746.3,1591.9 726.3,1574.7 726.1,1574.8 705.3,1549.7 705.3,1533 706.3,1531.2 676.6,1515.5 647,1534.1 629.4,1524.7 
		603.8,1540.8 602.2,1539.8 558.7,1567.2 559.4,1569.1 535.5,1584.1 537.4,1586.8 538.3,1586.9 538.5,1603.4 538.5,1636.6 
		538.6,1636.7 538.6,1636.7 539.5,1637.4 539.5,1642.2 566.7,1661.6 581.5,1672.4 580,1673.3 580,1674.9 577.8,1676.3 577.8,1678 
		575.5,1679.4 575.5,1681.1 573.2,1682.5 573.2,1685.4 585.8,1694.6 585.8,1694.8 585.9,1694.7 587,1695.4 587.8,1694.9 
		587.8,1694.9 587.9,1694.9 588.4,1694.5 588.4,1694.5 601.1,1686.6 603.1,1688 606.5,1690.8 641.8,1668.3 674.5,1647.9 
		674.5,1648.5 687.3,1657.7 688.2,1657.2 688.2,1657.2 691.6,1655.1 691.6,1654 691.8,1653.9 691.8,1653.3 694.6,1651.6 
		694.6,1650.6 694.7,1650.5 698.7,1653.4 702.1,1650.9 705.4,1648.8 710.7,1652.6 723.6,1644.5 753.3,1629 761.3,1624 761.3,1622.1 
		761.3,1616.1 761.3,1614.8 761.3,1613.8 	">
	<title>Blue House (147 Grape Street)</title>
	</polygon>
	<polygon id="marydooleycollegecenter" points="4397.7,2384.8 4249.2,2277.2 4225.6,2292.1 3970.7,2107.4 3887.8,2159.6 
		3787.9,2087.2 3672.7,2159.7 3664.6,2153.8 3636.5,2171.5 3630.7,2167.2 3618.6,2174.8 3618.6,2177.3 3622,2179.8 3622,2258.1 
		3650.8,2279 3659.2,2273.7 3681.2,2289.6 3623.4,2326 3623.4,2373.6 3752.2,2466.9 3752.2,2467.2 3768.1,2478.7 3768.3,2478.6 
		3886.2,2563.9 3886.2,2575.1 3900.2,2585.3 3900.2,2586.9 3901.4,2586.1 3929.3,2606.4 3929.3,2606.4 3966.6,2633.3 3973.8,2638.5 
		3973.8,2638.5 3992.1,2651.8 3992.1,2653.4 3993.3,2652.6 4023.4,2674.5 4023.4,2674.5 4034.7,2682.6 4044.5,2676.5 4096.2,2643.9 
		4096.2,2643.9 4128.1,2623.9 4129.3,2624.8 4129.3,2623.1 4146.5,2612.3 4146.5,2612.3 4179.9,2591.2 4199.6,2605.4 4204.6,2602.3 
		4204.6,2602.3 4204.6,2602.3 4263,2565.5 4269.1,2561.6 4269.1,2561.6 4269.7,2561.3 4269.7,2534.7 4300.9,2515.1 4300.9,2515.1 
		4355.9,2480.5 4355.9,2480.5 4390.2,2458.8 4391.5,2459.8 4391.5,2458 4397.7,2454.1 	">
	<title>Mary Dooley College Center</title>
	</polygon>
	<polygon id="brickhouse" points="2939,2234.6 2943,2232 2823.8,2145.6 2734.7,2200.9 2719.3,2189.7 2674.6,2217.9 2677.9,2220.3 
		2677.9,2251.8 2688.6,2259.6 2688.6,2281.8 2689.8,2281.8 2689.1,2282.8 2708.4,2296.9 2708.4,2298.5 2708.7,2299.2 2708.7,2301 
		2709.7,2300.3 2717,2305.6 2717,2307.1 2717.9,2306.3 2724.1,2310.7 2723.7,2311.3 2724.8,2311.3 2724.8,2311.4 2725,2311.4 
		2725.3,2311.6 2730.8,2313.1 2776.4,2346.1 2840.2,2306 2840.6,2306.3 2843,2304.8 2843,2304.2 2843.3,2303.9 2843.7,2303.7 
		2843.7,2303.1 2850.3,2298.9 2850.8,2299.2 2850.9,2299.1 2850.9,2299.2 2851.9,2298.6 2851.6,2298.2 2851.6,2298.2 2851.9,2298.6 
		2852,2298.5 2852.5,2298.8 2854.9,2297.3 2854.9,2296.8 2859.5,2293.9 2886.7,2313.6 2891,2310.9 2894,2311.6 2897.3,2312.4 
		2901.4,2312.7 2905.8,2312.3 2910.5,2311.3 2915.2,2309.8 2919.8,2307.8 2924.2,2305.4 2928.2,2302.6 2931.5,2299.6 2934.1,2296.5 
		2935.9,2293.3 2936.9,2290 2936.9,2287.8 2937.7,2285.4 2937.7,2284.9 2937.7,2284.9 2937.6,2281.8 2937.6,2281.6 2938.4,2281.1 
		2937.7,2280 2939,2280 	">
	<title>Brick House (15 Gaylord Street)</title>
	</polygon>
	<polygon id="alumnaelibrary" points="4298.1,2893.6 4220.4,2837.2 4220.4,2827.3 4220.4,2827.3 4222,2826.3 4220.4,2825.3 
		4163.6,2784.1 4162.8,2783.9 4154.2,2789.3 4120.7,2765 4061.3,2749.5 4061.3,2746.5 4062.6,2745.6 4060.9,2744.1 3979.3,2684.9 
		3978.6,2685.3 3978.5,2685.3 3978.5,2685.3 3950,2703.3 3917.8,2723.6 3916.1,2724.6 3917.6,2725.6 3917.6,2725.7 3917.6,2736.9 
		3862.7,2771.5 3853,2764.5 3852.3,2764.8 3852.2,2764.8 3852.2,2764.8 3820.2,2785 3791.5,2803 3789.8,2804.1 3791.3,2805.1 
		3791.3,2805.2 3791.3,2816.4 3789.2,2817.7 3787.7,2816.7 3742.6,2845.1 3681.4,2938.2 3683.8,2939.9 3683.8,2963.4 3688.2,2966.6 
		3691.4,2964.6 3854.3,3082.6 3854.3,3086.9 3858.8,3090.2 3879.8,3077 3892.8,3086.4 3892.8,3091.8 3897.3,3095.1 3916.6,3083 
		3922.1,3086.9 3922.1,3105.2 3975.6,3144 3979.3,3146.8 3983.7,3150 3988.6,3147 3988.6,3141.9 4001.6,3133.7 4019.6,3146.7 
		4024.5,3143.7 4024.5,3139.7 4197.6,3030.7 4201,3030.3 4202.7,3031.5 4207.5,3028.5 4207.5,3004.9 4209.9,3003.4 4209.2,3002.2 
		4248.7,2977.3 4252.7,2975 4257.3,2972.1 4257.3,2944 4257.3,2943 4295.8,2918.6 4295.8,2895.4 4296.9,2895.7 	">
	<title>Alumnae Library</title>
	</polygon>
	<polygon id="spauldinghouse" points="5465,3699 5465.7,3698.4 5465.1,3697.1 5465.1,3684.3 5465.1,3684.3 5465.1,3679.2 
		5465.1,3679.1 5464.9,3676.4 5463.8,3675.8 5427.9,3629.6 5404.1,3639 5397.8,3641.1 5397.8,3639.6 5389.1,3635.4 5382.9,3641.3 
		5382.9,3643.4 5383.1,3643.5 5383.1,3652.8 5360,3674.5 5358.2,3666.9 5349.6,3658.6 5349.6,3658.2 5350.3,3657.5 5350.3,3655.9 
		5350,3655.7 5350.3,3655.4 5350.3,3653.7 5349.6,3653.4 5349.6,3650.6 5350.5,3646.9 5350.5,3643.6 5338.5,3637.8 5338.5,3637.1 
		5338,3637.5 5336.6,3636.9 5331.9,3641.3 5330.7,3639.6 5330.8,3639.2 5330.5,3638 5330.4,3637.7 5330.4,3637.7 5330.3,3637.1 
		5330.4,3636.8 5330.2,3635.9 5330.3,3634.2 5330.1,3633.3 5329.6,3632.5 5329.5,3632.4 5329.5,3632.3 5329.7,3631.5 5329.4,3630.6 
		5329.3,3630.5 5328.8,3627.3 5326.9,3630.4 5326.8,3630.2 5326.9,3630.4 5326.9,3630.4 5327,3630.4 5326.6,3630.5 5326.5,3630.4 
		5326.4,3630.6 5326.3,3630.6 5326.3,3630.7 5326.3,3630.8 5326.3,3630.8 5326.3,3630.8 5325.9,3631.3 5325.3,3632.5 5325.5,3633.8 
		5325.6,3634.1 5325.6,3634.1 5325.6,3634.3 5325.8,3634.6 5325.7,3635.7 5325.8,3636.1 5325.3,3636.6 5325.5,3637.3 5325,3638.5 
		5325.2,3639.5 5322.9,3642.7 5293,3674.2 5295.9,3686.1 5295.6,3687.1 5295.9,3688.1 5285.6,3687.1 5283.8,3688.8 5278.2,3686.1 
		5268.4,3695.4 5268.4,3698.2 5269.2,3701.9 5269.2,3702.6 5231.1,3738.6 5231.1,3740.2 5232.1,3740.7 5232.1,3741.8 5232.3,3742 
		5232.2,3742.1 5232.2,3743 5232.3,3743.2 5232.2,3743.5 5232.2,3748.9 5232.3,3749.5 5232.2,3750.2 5232.2,3750.7 5232,3751.1 
		5232,3755.5 5226.9,3760.4 5226.9,3766 5207.5,3784.3 5208.4,3784.8 5208.4,3785.7 5209.9,3786.4 5209.9,3792 5210,3792.2 
		5210,3792.3 5210,3793.1 5210.1,3793.4 5210,3793.7 5210,3799.1 5210.1,3799.7 5210,3800.4 5210,3800.9 5209.8,3801.3 5209.8,3806 
		5209.8,3806.2 5208.4,3807.4 5208.4,3811.1 5208.7,3811.1 5208.7,3811.1 5208.7,3811.6 5208.6,3811.6 5208.6,3811.6 5208.6,3811.6 
		5208.6,3811.8 5208.6,3812.2 5208.6,3812.7 5208.6,3813.7 5208.6,3814.3 5208.6,3814.8 5208.6,3815 5207.5,3816 5208.4,3816.5 
		5208.4,3816.6 5268.6,3845.6 5266.2,3847.9 5266.2,3849.7 5262.9,3852.9 5262.9,3854.6 5259.5,3857.8 5259.5,3860.9 5289.5,3875.4 
		5290.5,3874.5 5303.3,3862.4 5337.3,3878.8 5337.3,3880 5338.1,3879.2 5338.5,3879.4 5338.9,3879 5339.2,3879.1 5339.2,3878.7 
		5413.9,3808.1 5414.2,3808.3 5414.2,3807.9 5414.5,3807.5 5414.5,3807.4 5415.3,3806.6 5414.9,3806.4 5416.7,3804.7 5419.3,3806 
		5436,3790.2 5436,3786.5 5436.4,3786.2 5436.4,3766.5 5465,3739.4 	">
	<title>Spaulding House</title>
	</polygon>
	<polygon id="marianhall" points="4796,1514.7 4798.6,1513 4775.9,1477.4 4762,1455.1 4726.1,1459.8 4718.1,1454 4693.9,1442.5 
		4669.9,1484 4671.3,1485.8 4671.3,1493.8 4645.5,1510.1 4648.7,1511.4 4648.7,1522.2 4621.5,1539.4 4622.5,1541.5 4624.8,1543.2 
		4624.8,1554.3 4622.6,1555.7 4622.6,1562.2 4632,1569 4632,1569 4649.7,1581.8 4647.9,1583 4647.9,1584.1 4645.4,1585.6 
		4645.4,1586.6 4643,1588.2 4643,1589.7 4643.4,1590 4643.4,1590.5 4661.8,1603.9 4663.3,1602.9 4663.3,1602.9 4665.5,1601.6 
		4665.5,1601 4665.7,1600.8 4665.7,1600.4 4665.7,1600.4 4665.7,1600.4 4668,1599 4668,1598.4 4668.1,1598.3 4668.1,1597.8 
		4668.2,1597.8 4668.2,1597.8 4670.1,1596.6 4679.9,1603.7 4679.9,1603.7 4701.6,1619.4 4794.8,1560.8 4794.8,1556.4 4796,1555.6 	
		">
	<title>Marian Hall</title>
	</polygon>
	<polygon id="rosewilliamhall" points="4996.8,1985.4 4935.3,1718.4 4850.6,1727.3 4851.1,1693.3 4851.1,1689.6 4450.5,1686.7 
		4450,1721.7 4369.1,1711.2 4293.6,1976.5 4293.6,1980.2 4294.1,1980.3 4294.1,2045.7 4294.1,2046.8 4294.1,2049.3 4435.4,2067.6 
		4495.1,1857.6 4495.4,1857.6 4495.5,1857.8 4495.5,1857.6 4573.8,1858.2 4575,1865.1 4575.6,1866.9 4582.1,1867 4585.3,1883.4 
		4626.4,1883.7 4626.8,1885.7 4626.9,1886.1 4630,1903.6 4635,1903.6 4635,1903.6 4636.1,1903.6 4636.3,1903.6 4636.3,1903.6 
		4661.8,1903.8 4661.8,1903.8 4668,1903.8 4672.2,1884 4713.4,1884.3 4717.3,1867.9 4722.8,1868 4723.7,1866 4723.7,1865.9 
		4725,1859.7 4805.1,1860.3 4823.4,1939.5 4823.3,1939.5 4823.4,1939.5 4854.1,2073.1 4996.3,2058.1 4996.3,2055.6 4996.3,2054.5 
		4996.3,2043.4 4996.4,2043.4 4996.4,1989.1 4996.8,1989 	">
	<title>Rose William Hall</title>
	</polygon>
	<polygon id="devinehall" points="6525.1,2886.8 6530.1,2883.6 6531.3,2881.2 6456.3,2826.8 6435.5,2831.7 6390.4,2799.1 
		6380.6,2805.3 6209.9,2912.7 6194.6,2922.3 6194.6,2922.3 6166.4,2940.1 6166.4,2940.1 6147.4,2952 6149.8,2953.8 6149.8,2975.1 
		6149.8,2976.2 6149.8,2987.1 6149.7,2987.1 6149.7,2987.1 6149.7,2987.2 6148.1,2987.1 6148.5,2987.9 6140.4,2993 6142.8,2993.2 
		6142.8,2993.2 6142.8,2993.2 6142.8,3005.5 6142.8,3007 6141.8,3007.6 6142.8,3008.3 6142.8,3013.4 6148.4,3017.5 6149.8,3018.5 
		6149.8,3023.2 6191.4,3053.4 6191.4,3053.4 6191.5,3053.4 6249.2,3095.2 6406.4,2996.2 6406.5,2996.3 6406.5,2996.2 6428.3,2982.4 
		6469.8,2956.3 6469.8,2956.3 6469.8,2956.3 6525.3,2921.4 6525.3,2901.1 6525.1,2900.5 6525.1,2886.9 	">
	<title>Devine Hall</title>
	</polygon>
	<polygon id="maguirecenter" points="6433.3,2592.6 6433.3,2564.4 6290.8,2461.2 6290.8,2407.8 6228.9,2363 6189.4,2387.8 
		6136,2349.1 6131.5,2351.9 5965,2231.3 5656.7,2425.4 5656.7,2522.6 5756.7,2595.1 5756.7,2624 5677.6,2566.7 5677.6,2561.2 
		5672.8,2557.7 5668.7,2560.3 5667.9,2559.7 5667,2560.3 5663.5,2557.7 5658.1,2561.1 5658.1,2565.9 5633.6,2581.3 5633.6,2578 
		5630.7,2575.9 5628.2,2577.5 5628,2577.4 5626.9,2576.7 5626.9,2577 5617.2,2573.2 5607.2,2589.7 5606.4,2589 5606.4,2591.3 
		5603.9,2592.8 5603.9,2600 5541.9,2639.1 5538.3,2636.5 5533.1,2639.7 5533.1,2645.6 5532.5,2646 5532.5,2652 5532.7,2652.1 
		5532.7,2653.8 5533,2654 5533,2681.6 5532.7,2681.7 5532.7,2689.5 5537.4,2692.8 5542.3,2689.7 5679.1,2788.8 5679.1,2795.5 
		5683.8,2798.9 5688.7,2795.8 5696.2,2801.2 5696.2,2829.4 5699.9,2832.1 5704,2829.5 5705.6,2828.5 5712.9,2833.8 5712.9,2834.5 
		5713.4,2834.2 5720.9,2839.6 5720.9,2840.4 5721.5,2840 5726.3,2843.5 5726.3,2844.2 5726.8,2843.9 5734.4,2849.3 5734.4,2850 
		5734.9,2849.7 5736.3,2850.7 5736.3,2858.4 5739.9,2861.1 5743.3,2858.9 5745.3,2860.4 5748.8,2858.2 5748.8,2855.4 5760.7,2847.9 
		5783.9,2864.8 5783.9,2871.4 5788.8,2874.9 5793.7,2871.8 5857.8,2918.3 5857.8,2924.9 5862.6,2928.4 5867.5,2925.3 5885.5,2938.4 
		5885.5,2945 5890.1,2948.4 5895.1,2945.3 5899.4,2948.4 5904.4,2945.3 5904.4,2939.4 6020.1,2866.6 6024.4,2869.8 6029.6,2866.5 
		6029.6,2860.6 6030.2,2860.3 6030.2,2852.5 6029.9,2852.3 6029.9,2824.7 6030.2,2824.6 6030.2,2822.9 6030.4,2822.8 6030.4,2816.8 
		6025.5,2813.3 6021.5,2815.8 5977.8,2784.2 5999.1,2770.8 6137.6,2871.1 6446,2677 6446,2601.8 	">
	<title>Maguire Center</title>
	</polygon>
	<polygon id="olearyhall" points="5506.6,2118.3 5505.4,2118.3 5506.5,2117.7 5458.7,2030.1 5410.5,2048.7 5410.9,2049.9 
		5410.3,2048.8 5385.9,2064.2 5346.6,2035.7 5346.6,2026.2 5348.5,2024.9 5348.5,2023.1 5348.5,2023 5349.1,2022.7 5338.9,2002.7 
		5328.7,2007.9 5317.7,2014.8 5299.1,2001.3 5299.1,1991.8 5301,1990.5 5301,1988.7 5301.1,1988.6 5301.6,1988.3 5291.4,1968.3 
		5281.2,1973.5 5270.2,1980.4 5262.5,1974.8 5262.5,1972.1 5259,1969.6 5221.4,1958 5216.7,1956.6 5174.8,2022.2 5174.8,2026.4 
		5177.1,2028.1 5177.1,2142.6 5193.8,2154.6 5183,2173.7 5183.6,2174.2 5183.6,2174.3 5183.6,2176.1 5185.5,2177.4 5185.5,2190.3 
		5171.8,2198.9 5166.3,2194.9 5166.3,2165.1 5169.9,2162.9 5168.6,2160.6 5168.9,2160.4 5168.9,2156.1 5142.2,2108.1 5142.2,2078.5 
		5142.7,2078.2 5142.7,2076.5 5142.2,2076.2 5142.2,2073 5142.6,2072.8 5142.6,2072.5 5143.3,2072.1 5142.4,2070.5 5131.7,2062.7 
		5131.7,2062.6 5131.6,2062.7 5125.1,2057.9 5120.1,2061 5118.7,2062.4 5119.7,2063.1 5119.7,2063.3 5120,2063.6 5120,2066.7 
		5119.6,2067 5119.6,2068.6 5120,2069 5120,2093.3 5094.2,2102.3 5089.9,2105 5089.9,2107.7 5067.6,2121.7 5067.6,2119.7 
		5063.6,2116.8 5013.4,2102.1 5012.2,2101.7 4961.3,2180.8 4961.3,2185.7 4962.2,2186.4 4962.2,2188.1 4950.5,2195.4 4942.3,2198.3 
		4938,2201 4938,2206.7 4941.2,2205.6 4941.2,2302.7 4940.9,2302.9 4940.9,2308 4941.2,2308.2 4941.2,2320.3 4951.3,2327.6 
		4951.3,2329.8 4951.6,2330 4951.6,2342.1 4979.2,2362.1 4979.2,2362.1 4980.8,2363.3 4997.1,2360.9 5008.8,2369.4 5008.8,2370.5 
		5013.5,2373.9 5015.6,2372.6 5040.9,2390.9 5040.9,2393.7 5045.6,2397.1 5047.6,2395.8 5063.2,2407.2 5059.9,2409.2 5059.9,2412.4 
		5060.3,2412.7 5060.3,2424.9 5067.1,2429.8 5067.3,2429.6 5093.4,2448.5 5093.4,2448.9 5100.2,2453.8 5114.9,2444.6 5140.1,2462.9 
		5140.1,2465.6 5144.9,2469.1 5146.9,2467.8 5172.2,2486.1 5172.2,2488.9 5177,2492.3 5177.8,2491.8 5183.8,2496.1 5239.3,2461.1 
		5258.4,2446 5264.1,2442.3 5283.4,2485.4 5318.5,2510.9 5321,2512.8 5350.5,2494.2 5349.8,2493.2 5351.1,2493.2 5351.1,2481.8 
		5351.4,2481.6 5351.4,2480.6 5376.3,2464.9 5376.3,2459.2 5400.5,2444 5400.5,2431.8 5400.8,2431.6 5400.8,2427.1 5400.7,2426.5 
		5400.5,2426.3 5400.5,2334.8 5404,2332.5 5403.2,2331 5403.9,2330.6 5403.9,2326.3 5393.1,2307 5399,2303.3 5410,2311.3 
		5434.9,2295.6 5450.1,2298.8 5469.8,2286.4 5469.1,2285.3 5470.4,2285.3 5470.4,2273.9 5470.6,2273.7 5470.6,2273.1 5491.8,2259.8 
		5491.8,2244.9 5506.6,2235.5 	">
	<title>O’Leary Hall</title>
	</polygon>
	<polygon id="lyonscenter" class="st2" points="5283.4,2485.4 5264.1,2442.3 5258.4,2446 5239.3,2461.1 5214,2477 5206.3,2481.9 
		5206.2,2481.9 5205.9,2482.1 5206,2482.1 5150.8,2516.8 5132.7,2503.8 5132.7,2497.2 5132.6,2497.2 5132.6,2497.2 5132.7,2497.1 
		5132.6,2484 5133.3,2483.5 5131.7,2480.7 5129.4,2479 5127.7,2479.5 5119.1,2484.9 5103.3,2474.3 5102.4,2473.6 5100.8,2475.4 
		5101.6,2476.2 5100.5,2475.6 5084.2,2507.1 5072.8,2514.3 5074,2515.2 5074,2565.1 5044.7,2583.6 5043.6,2581.1 5037.9,2584.8 
		5007.1,2609.1 5020.6,2640.3 5062.7,2670.8 5062.7,2803.4 5072.8,2810.7 5075.4,2812.9 5075.4,2816.4 5317.8,2663.5 5318.4,2663.5 
		5318.5,2510.9 	">
	<title>Lyons Center for Natural and Health Sciences</title>
	</polygon>
	<polygon id="berchmanshall" points="5486.6,2977.9 5478.1,2971.7 5536.5,2935 5536.5,2850.4 5540.1,2848.1 5537.3,2846 
		5537.3,2842.2 5533.2,2839.2 5533.2,2838.9 5533,2839 5506.7,2820 5506.7,2765.1 5509.4,2763.4 5428.1,2617.2 5396,2628.4 
		5391.6,2617.8 5382.8,2623.4 5372.5,2576.9 5370.1,2576.9 5354.5,2641.2 5349.3,2644.5 5349.3,2644.7 5349.2,2644.8 5346.9,2645.6 
		5075.4,2816.4 5075.4,2812.9 5072.8,2810.7 5062.7,2803.4 5062.7,2670.8 5020.6,2640.3 5005.1,2604.4 4942.4,2643.8 4942.4,2634.9 
		4943,2634.5 4941.6,2632.2 4939.9,2630.9 4938.4,2631.2 4932.5,2634.9 4921.5,2627.5 4920.7,2626.9 4919.3,2628.4 4920.2,2629.2 
		4919.1,2628.6 4907.6,2650.6 4899.1,2655.9 4900.3,2656.8 4900.3,2670.3 4782.5,2744.4 4782.5,2744.1 4776.4,2739.4 4783.1,2735.2 
		4781.8,2732.8 4780,2731.5 4778.5,2731.9 4772.6,2735.6 4761.6,2728.2 4760.8,2727.6 4759.4,2729 4760.3,2729.9 4759.2,2729.3 
		4747.7,2751.3 4739.3,2756.6 4740.4,2757.4 4740.4,2770.9 4737,2773.1 4736.3,2773.7 4694.5,2800 4694.3,2799.9 4694.3,2797.8 
		4695,2797.4 4694.4,2793 4691.9,2791.1 4661.1,2810.2 4660.5,2809.8 4658.5,2811.1 4656.9,2815.3 4654.7,2816.7 4654.7,2839.2 
		4653.3,2840.1 4653.3,2961.9 4663.3,2969.2 4666.4,2967.2 4666.4,2979.6 4693.2,2998.9 4708.5,2999.2 4708.5,3001.9 4718.7,3009.3 
		4722.2,3007.1 4724.3,3008.6 4728.6,3005.8 4883,3117.7 4883,3139.4 4890.8,3145 4889.8,3146.8 4889.7,3149.1 4889.7,3149.1 
		4889.7,3151.1 4890.5,3151.1 4890.6,3151.2 4889.8,3151.6 4890.6,3153.4 4892.2,3155 4949.3,3196.5 4951.5,3197.6 4954.2,3198.3 
		4957.1,3198.4 4959.7,3197.9 4962.1,3196.9 4962.2,3196.8 4972.2,3204 4978.8,3204.2 4991.4,3196.2 5152.8,3313.1 5152.8,3323.8 
		5163,3331.1 5166,3329.3 5166,3341.4 5192.7,3360.8 5208.2,3361.1 5208.2,3363.9 5218.2,3371.1 5221.7,3368.9 5223.8,3370.4 
		5237.5,3361.7 5222.4,3372 5222.4,3373.5 5227.3,3377.1 5227.3,3377.1 5232.9,3381.1 5233,3381 5233.6,3381.4 5323.4,3324.9 
		5322.8,3323.9 5323.4,3324.9 5341.8,3313.4 5341.8,3312.2 5357.4,3302.4 5358.1,3303 5360.6,3301.4 5360.6,3295.3 5352.3,3289.3 
		5539.4,3171.5 5539.4,3053.6 5504.9,2966.4 	">
	<title>Berchmans Hall</title>
	</polygon>
	<path id="keatingquad" class="st3" d="M4593.2,2695.3l-0.5-5.3v-0.2l-1.2-5.2c0,0,0-0.1,0-0.1l-1.9-5.2l-0.1-0.1l-2.6-5.1
		c0,0,0-0.1-0.1-0.1l-3.3-4.9c0,0,0-0.1-0.1-0.1l-4-4.8l-0.1-0.1l-4.7-4.6l-0.1-0.1l-5.4-4.3l-0.1-0.1l-6.1-4h-0.1l-6.5-3.5h-0.1
		l-6.9-3.1h-0.1l-7.2-2.6h-0.2l-7.5-2.1l-7.7-1.6l-7.9-1.2l-8-0.7l-8-0.2l-8,0.3l-8,0.8l-6.5,1l-0.1-0.1l-0.1-0.1l-0.1-0.1
		c0,0,0,0-0.1-0.1l-0.5-0.3c-0.5-0.4-1.3-0.3-1.7,0.3c0,0,0,0,0,0l0,0.1l-1.9,0.4l-3.1,0.7l-3.1,0.8l-3,0.9l-3,0.9l-3,1l-2.9,1.1
		l-2.9,1.2l-2.8,1.3l-2.8,1.4l-2.7,1.4l-1.8,1.1l-28-20.3c-0.6-0.4-1.3-0.3-1.7,0.3c0,0,0,0,0,0c-0.2,0.2-0.3,0.5-0.2,0.8
		l-204.8,128.7l0,0c-0.1,0-0.1,0.1-0.2,0.2l-0.1,0.1l-0.1,0.1v0.1l0,0.1l-0.1,0.2v0.1c0,0.1,0,0.2,0,0.3l0,0v0.8
		c0,0.4,0.2,0.8,0.5,1l26.5,19.2l1.9,1.3l-2.3,1.9l0,0l-6.9,5.8l-0.1,0.1l-5.5,6.1c0,0-0.1,0.1-0.1,0.1l-4.3,6.4l-0.1,0.2l-3,6.7
		c0,0.1-0.1,0.1-0.1,0.2l-1.3,4.7l5.3,3.8l1.6,1l-1.6,1l0,0v9.9l70.9,51.4l2.1,0.2h0.1l10.3,0.1h0.1l10.2-0.7h0.1l10.1-1.6h0.1
		l9.8-2.4h0.1l9.4-3.3l0.1-0.1l8.2-3.8l24.6,17.9c0.2,0.2,0.5,0.2,0.7,0.2h0.3l5.7-1.3c0.1,0,0.2,0,0.3-0.1l0.1-0.1l205.1-129.2
		c0.4-0.2,0.6-0.6,0.6-1.1v-0.9c0-0.1,0-0.2,0-0.3c0.2-0.5,0-1.1-0.4-1.4l-21.5-15.6l1.1-0.7l2.4-1.8l2.3-1.8l2.1-1.9l2-1.9l1.9-2
		l1.8-2l1.6-2l1.5-2.1l1.4-2.1l1.3-2.1l0.6-1.1c0.1,0,0.2,0,0.3,0h0.1c0.1,0,0.1-0.1,0.2-0.1l0.1-0.1c0.1,0,0.1-0.1,0.1-0.1l0.1-0.1
		l0,0c0-0.1,0.1-0.2,0.1-0.2l0,0l1.6-3.8v-0.1l1.5-5.2v-0.2l0.8-5.3c0-0.1,0-0.1,0-0.2l0.2-5.3v-0.9
		C4593.1,2695.7,4593.2,2695.5,4593.2,2695.3C4593.2,2695.4,4593.2,2695.3,4593.2,2695.3z	">
<title>Keating Quadrangle</title>
	</path>
	<path id="cherylcondonsoftballfield" d="M8119.5,2096.7l-16.8-22l-5.2-6.2l-5-5.8l-5.1-5.7l-5.2-5.6l-5.2-5.6l-4.6-4.7v-1.4
		l-0.3-0.4l-1.1-0.7h-1.2l-0.3-0.3l-0.2,0.1l-65.1-56.3l-75-47.3l-82.1-37.6l-87.7-27.8l-91.6-18l-93.9-8.2l-94.4,1.8l-93.4,11.7
		l-90.7,21.8l-86.4,31.9l-80.5,42l-72.4,51.9h-0.1l-1.7,0.1l-0.3,0.2l-1.2,1.4l0.3,0.4v0.3l-5.2,4.4l-5.9,5.2l-5.8,5.3l-5.7,5.4
		l-5.7,5.4l-5.6,5.6l-19.9,21.1v1.4l303.9,243l0.5-0.3v0.4l107.3,85.8l12.6,10.2l25.3,20l48.6,39l75.2,2.5l59.9-39.9l3.9-2.8
		l7.1-4.7l145.7-97.1l0.2,0.1l7.7-5.3l12-8.2l310-205.1L8119.5,2096.7L8119.5,2096.7z	">
<title>Condon Field</title>
	</path>
	<path id="learyfield" d="M7176.8,2282.6l-720.3-553.8l-42.8-32.9l-0.9-0.4l-1.5,0l-14.5,8.5l-0.5-0.1l-0.7,0.1l-1,0.6l0.4,0.7l0,0
		l-0.5-0.7l-93.2,55.2l0,0L6053,1906.9l0-0.1l-207.1,122.6l-0.2,0.1l-0.6,0.6l-0.2,0.7l0,0l0,0.1l0,0.2l0.2,0.7l838.8,645.1l0.4,0.3
		l1,0.3l0.7-0.1l13.8-8l0,0l1.1-0.6l1.1-0.6l0,0l345.2-204.4l0-0.1l19.1-10.2l185.9-110.1l0-1.5L7176.8,2282.6z	">
<title>Timothy J. Leary Field</title>
	</path>
</g>
</svg>
