<svg id="campusMap" xmlns="http://www.w3.org/2000/svg" xmlns:xlink="http://www.w3.org/1999/xlink" viewBox="0 0 8192 4500">
  <defs>
    <style>
.cls-1{isolation:isolate;}.cls-2{mask:url(#mask);}.cls-3{fill:#6e6e6e;}.cls-4{fill:#ababab;}.cls-5{filter:url(#luminosity-invert);}
</style>
    <filter id="luminosity-invert" filterUnits="userSpaceOnUse" color-interpolation-filters="sRGB">
      <feColorMatrix values="-1 0 0 0 1 0 -1 0 0 1 0 0 -1 0 1 0 0 0 1 0"/>
    </filter>
    <mask id="mask" x="535.54" y="-10441" width="5995.74" height="32766" maskUnits="userSpaceOnUse">
      <g class="cls-5"/>
    </mask>
  </defs>
  <image class="cls-1" width="10000" height="4500" transform="translate(0 406.8) scale(0.82)" xlink:href="/wp-content/themes/gs_elms/images/Elms-campus3d-min.jpg"/>
  <g class="cls-2">
    <polygon id="gaylordmansion" points="1805.32 1838.23 1819.8 1826.4 1794.54 1809.88 1780.36 1801.7 1767.22 1812.43 1729.05 1840.92 1707.28 1828.77 1674.17 1854.24 1661.4 1864.33 1660.86 1864.02 1660.86 1861.59 1661.15 1861.36 1661.47 1861.06 1661.66 1860.36 1661.62 1860.15 1661.79 1859.88 1661.79 1859.6 1664.06 1857.81 1650.34 1843.34 1650.34 1842.94 1646.79 1840.89 1635.81 1849.57 1629.13 1845.71 1626.28 1843.98 1613.55 1836.73 1610.08 1839.47 1596.69 1831.75 1594.15 1833.77 1594.15 1834.04 1583.7 1846.25 1585.61 1847.36 1585.61 1847.54 1585.72 1847.72 1585.71 1847.89 1585.94 1848.63 1586.31 1848.85 1586.31 1858.66 1585.88 1859.03 1585.7 1859.73 1585.72 1859.83 1585.61 1860.03 1585.61 1860.77 1585.51 1860.9 1585.58 1861.55 1580.09 1866.7 1581.41 1873.8 1574.83 1870.01 1571.82 1872.39 1571.82 1872.71 1558.12 1888.72 1560.44 1890.06 1560.44 1890.42 1560.61 1890.68 1560.58 1890.99 1560.81 1891.72 1561.25 1891.98 1561.27 1892.01 1561.37 1892.07 1561.37 1896.44 1539.14 1919.9 1542.13 1921.62 1542.13 1943.4 1541.73 1943.73 1541.22 1944.3 1541.1 1944.91 1541.1 1946.09 1541.23 1946.9 1541.67 1947.31 1542.13 1947.62 1542.13 1948.44 1531.67 1956.7 1530.12 1957.82 1526.71 1961.16 1527.82 1961.79 1528.58 1963.17 1528.58 1963.36 1529.37 1963.82 1529.37 1963.9 1529.49 1963.97 1529.49 1966.07 1528.51 1966.84 1528.51 1968.52 1528.99 1968.79 1527.78 1969.42 1529.3 1970.3 1529.3 1974.73 1521.06 1981.24 1519.2 1981.17 1516.64 1983.19 1517.59 1985.4 1517.59 1987.02 1528.32 1993.21 1529.05 1993.62 1535.43 1997.29 1545.6 2002.99 1544.88 2003.57 1544.88 2005.25 1545.36 2005.53 1544.14 2006.15 1545.66 2007.03 1545.66 2015.12 1544.99 2015.65 1544.99 2017.31 1545.66 2017.7 1545.81 2017.95 1545.81 2019.08 1545.72 2019.28 1545.31 2019.6 1544.64 2020.89 1543.68 2021.66 1543.68 2030.16 1574.94 2048.2 1577.73 2045.99 1618 2069.22 1637.17 2054.06 1640.13 2055.77 1656.69 2042.68 1663.66 2046.7 1691.89 2024.38 1691.14 2023.42 1692.37 2023.42 1692.37 2014.48 1699.84 2008.57 1723.86 2006.69 1741.18 1993 1740.41 1992.03 1741.64 1992.03 1741.64 1964.03 1742.09 1963.69 1742.55 1963.28 1742.76 1962.32 1742.75 1961.73 1799.77 1916.67 1799 1915.7 1800.23 1915.7 1800.23 1887.56 1800.97 1886.99 1803.01 1884.01 1781.33 1870.88 1747.68 1851.48 1781.51 1824.49 1805.32 1838.23"><title>Gaylord Mansion</title></polygon>/>
    <polygon id="bluehouse" points="760.58 1614.29 752.4 1608.37 751.65 1607.88 744.79 1603.88 744.79 1595.14 745.13 1594.93 745.13 1594.65 746.31 1593.9 746.31 1591.91 726.27 1574.7 726.07 1574.83 705.35 1549.71 705.35 1533.03 706.25 1531.24 676.6 1515.5 647.02 1534.12 629.41 1524.66 603.82 1540.77 602.24 1539.81 558.72 1567.2 559.41 1569.1 535.54 1584.12 537.42 1586.77 538.34 1586.91 538.49 1603.42 538.49 1636.6 538.64 1636.71 538.64 1636.72 539.52 1637.36 539.52 1642.21 566.69 1661.64 581.5 1672.37 580.05 1673.28 580.05 1674.91 577.76 1676.35 577.76 1677.98 575.48 1679.43 575.48 1681.06 573.19 1682.5 573.19 1685.44 585.8 1694.57 585.8 1694.75 585.92 1694.66 586.98 1695.43 587.84 1694.89 587.84 1694.89 587.87 1694.88 588.41 1694.53 588.41 1694.53 601.09 1686.55 603.14 1688.04 606.52 1690.81 641.83 1668.35 674.55 1647.91 674.55 1648.47 687.33 1657.73 688.23 1657.17 688.23 1657.17 691.59 1655.06 691.59 1654.04 691.83 1653.88 691.83 1653.35 694.56 1651.64 694.56 1650.62 694.72 1650.52 698.65 1653.36 702.1 1650.89 705.44 1648.79 710.71 1652.62 723.62 1644.51 753.27 1629.04 761.32 1623.97 761.32 1622.09 761.32 1616.05 761.32 1614.83 761.32 1613.82 760.58 1614.29"><title>Blue House (147 Grape Street)</title></polygon>/>
    <polygon id="marydooleycollegecenter" points="4397.71 2384.78 4249.2 2277.19 4225.57 2292.06 3970.66 2107.39 3887.79 2159.56 3787.93 2087.21 3672.74 2159.72 3664.59 2153.83 3636.49 2171.5 3630.7 2167.16 3618.64 2174.76 3618.64 2177.31 3622 2179.75 3622 2258.14 3650.75 2278.97 3659.18 2273.67 3681.19 2289.61 3623.35 2326.01 3623.35 2373.55 3752.17 2466.88 3752.17 2467.19 3768.06 2478.7 3768.29 2478.55 3886.16 2563.93 3886.16 2575.07 3900.24 2585.27 3900.24 2586.86 3901.42 2586.12 3929.34 2606.35 3929.34 2606.35 3966.55 2633.3 3973.77 2638.53 3973.77 2638.53 3992.08 2651.8 3992.08 2653.4 3993.26 2652.65 4023.45 2674.53 4023.45 2674.53 4034.68 2682.65 4044.51 2676.46 4096.24 2643.9 4096.24 2643.9 4128.06 2623.87 4129.34 2624.79 4129.34 2623.06 4146.45 2612.3 4146.45 2612.3 4179.94 2591.21 4199.56 2605.42 4204.61 2602.26 4204.61 2602.26 4204.61 2602.26 4262.99 2565.48 4269.11 2561.63 4269.11 2561.63 4269.69 2561.27 4269.69 2534.71 4300.92 2515.05 4300.92 2515.05 4355.88 2480.47 4355.88 2480.47 4390.23 2458.84 4391.51 2459.76 4391.51 2458.04 4397.71 2454.14 4397.71 2384.78"><title>Mary Dooley College Center</title></polygon>/>
    <polygon id="brickhouse" points="2938.97 2234.56 2942.99 2232.03 2823.77 2145.62 2734.74 2200.92 2719.3 2189.74 2674.57 2217.9 2677.85 2220.26 2677.85 2251.83 2688.55 2259.58 2688.55 2281.84 2689.78 2281.84 2689.06 2282.84 2708.42 2296.87 2708.43 2298.52 2708.67 2299.22 2708.67 2300.96 2709.71 2300.32 2717.02 2305.61 2717.02 2307.05 2717.93 2306.27 2724.1 2310.74 2723.72 2311.3 2724.77 2311.29 2724.77 2311.38 2724.98 2311.37 2725.31 2311.61 2730.81 2313.09 2776.45 2346.15 2840.18 2306.03 2840.58 2306.33 2842.99 2304.79 2842.99 2304.16 2843.31 2303.91 2843.66 2303.69 2843.66 2303.06 2850.33 2298.85 2850.82 2299.2 2850.9 2299.15 2850.94 2299.18 2851.86 2298.6 2851.61 2298.21 2851.61 2298.21 2851.86 2298.6 2852.02 2298.51 2852.47 2298.82 2854.9 2297.32 2854.9 2296.77 2859.5 2293.87 2886.74 2313.59 2890.97 2310.93 2893.96 2311.6 2897.26 2312.41 2901.44 2312.68 2905.81 2312.3 2910.49 2311.34 2915.22 2309.83 2919.84 2307.82 2924.18 2305.4 2928.16 2302.6 2931.49 2299.61 2934.12 2296.48 2935.95 2293.32 2936.95 2290.03 2936.95 2287.81 2937.68 2285.4 2937.68 2284.93 2937.68 2284.91 2937.61 2281.76 2937.55 2281.61 2938.4 2281.08 2937.74 2280.04 2938.97 2280.04 2938.97 2234.56"><title>Brick House (15 Gaylord Street)</title></polygon>/>
    <polygon id="alumnaelibrary" points="4298.11 2893.55 4220.37 2837.23 4220.37 2827.31 4220.4 2827.27 4221.97 2826.29 4220.41 2825.28 4163.6 2784.15 4162.76 2783.86 4154.16 2789.26 4120.71 2765.03 4061.3 2749.51 4061.3 2746.48 4062.63 2745.64 4060.89 2744.08 3979.28 2684.95 3978.63 2685.26 3978.5 2685.34 3978.49 2685.33 3950.03 2703.26 3917.79 2723.55 3916.1 2724.58 3917.55 2725.63 3917.64 2725.7 3917.64 2736.87 3862.67 2771.47 3852.98 2764.46 3852.32 2764.77 3852.2 2764.84 3852.19 2764.83 3820.2 2784.99 3791.54 2803.03 3789.81 2804.08 3791.25 2805.13 3791.33 2805.2 3791.33 2816.38 3789.18 2817.73 3787.72 2816.67 3742.62 2845.06 3681.37 2938.18 3683.75 2939.9 3683.75 2963.36 3688.23 2966.61 3691.42 2964.61 3854.34 3082.63 3854.34 3086.94 3858.82 3090.2 3879.82 3076.98 3892.84 3086.39 3892.84 3091.84 3897.33 3095.09 3916.59 3082.96 3922.06 3086.92 3922.06 3105.16 3975.64 3143.98 3979.31 3146.8 3983.74 3150.01 3988.56 3146.97 3988.56 3141.88 4001.55 3133.69 4019.64 3146.72 4024.47 3143.68 4024.47 3139.66 4197.63 3030.66 4201 3030.31 4202.66 3031.52 4207.48 3028.48 4207.48 3004.95 4209.89 3003.43 4209.18 3002.24 4248.74 2977.34 4252.7 2975.01 4257.3 2972.12 4257.3 2943.98 4257.3 2942.97 4295.8 2918.59 4295.8 2895.37 4296.91 2895.67 4298.11 2893.55"><title>Alumnae Library</title></polygon>/>
    <polygon id="spauldinghouse" points="5465.04 3699.03 5465.69 3698.4 5465.06 3697.13 5465.07 3684.27 5465.07 3684.27 5465.06 3679.16 5465.09 3679.14 5464.93 3676.39 5463.79 3675.84 5427.89 3629.65 5404.11 3639 5397.79 3641.13 5397.79 3639.63 5389.11 3635.43 5382.94 3641.26 5382.94 3643.44 5383.11 3643.53 5383.11 3652.8 5360.05 3674.47 5358.19 3666.91 5349.62 3658.6 5349.62 3658.19 5350.33 3657.51 5350.33 3655.86 5349.99 3655.7 5350.33 3655.37 5350.33 3653.72 5349.62 3653.38 5349.62 3650.55 5350.48 3646.88 5350.52 3643.59 5338.47 3637.77 5338.47 3637.05 5337.96 3637.53 5336.64 3636.89 5331.94 3641.32 5330.67 3639.58 5330.76 3639.18 5330.48 3638.02 5330.36 3637.74 5330.41 3637.68 5330.26 3637.05 5330.35 3636.81 5330.21 3635.93 5330.28 3634.18 5330.06 3633.29 5329.57 3632.52 5329.53 3632.44 5329.53 3632.32 5329.67 3631.51 5329.44 3630.64 5329.33 3630.53 5328.79 3627.26 5326.91 3630.37 5326.77 3630.2 5326.9 3630.37 5326.9 3630.39 5326.98 3630.45 5326.63 3630.54 5326.53 3630.45 5326.41 3630.6 5326.33 3630.61 5326.34 3630.7 5326.28 3630.78 5326.27 3630.78 5326.27 3630.79 5325.89 3631.3 5325.25 3632.47 5325.53 3633.75 5325.6 3634.07 5325.6 3634.07 5325.65 3634.29 5325.8 3634.55 5325.71 3635.73 5325.77 3636.13 5325.31 3636.61 5325.48 3637.31 5324.95 3638.53 5325.16 3639.49 5322.89 3642.68 5292.98 3674.23 5295.91 3686.13 5295.63 3687.14 5295.87 3688.15 5285.6 3687.08 5283.81 3688.78 5278.24 3686.1 5268.36 3695.43 5268.36 3698.2 5269.16 3701.95 5269.16 3702.61 5231.07 3738.58 5231.07 3740.16 5232.15 3740.68 5232.15 3741.84 5232.25 3741.96 5232.21 3742.06 5232.21 3742.96 5232.3 3743.22 5232.21 3743.52 5232.21 3748.89 5232.26 3749.51 5232.16 3750.18 5232.2 3750.67 5232.03 3751.09 5232.03 3755.51 5226.87 3760.38 5226.87 3766.04 5207.52 3784.31 5208.42 3784.76 5208.42 3785.71 5209.94 3786.43 5209.94 3792.04 5210.04 3792.16 5210.01 3792.26 5210.01 3793.15 5210.09 3793.42 5210 3793.72 5210 3799.09 5210.06 3799.7 5209.95 3800.39 5209.99 3800.86 5209.82 3801.29 5209.82 3806.01 5209.76 3806.2 5208.42 3807.45 5208.42 3811.13 5208.73 3811.13 5208.73 3811.13 5208.73 3811.56 5208.65 3811.56 5208.65 3811.61 5208.57 3811.64 5208.65 3811.81 5208.65 3812.16 5208.65 3812.72 5208.65 3813.68 5208.65 3814.25 5208.65 3814.83 5208.6 3815.01 5207.52 3816.03 5208.42 3816.47 5208.42 3816.56 5268.6 3845.61 5266.17 3847.91 5266.17 3849.72 5262.85 3852.85 5262.85 3854.64 5259.54 3857.77 5259.54 3860.88 5289.52 3875.35 5290.46 3874.46 5303.27 3862.36 5337.26 3878.77 5337.26 3879.96 5338.1 3879.18 5338.49 3879.36 5338.89 3878.99 5339.18 3879.14 5339.18 3878.72 5413.92 3808.14 5414.21 3808.28 5414.21 3807.86 5414.52 3807.5 5414.52 3807.45 5415.32 3806.6 5414.93 3806.41 5416.72 3804.72 5419.34 3805.98 5436.04 3790.2 5436.04 3786.48 5436.39 3786.16 5436.39 3766.46 5465.04 3739.41 5465.04 3699.03"><title>Spaulding House</title></polygon>/>
    <polygon id="marianhall" points="4795.99 1514.67 4798.65 1512.99 4775.92 1477.44 4761.96 1455.12 4726.09 1459.76 4718.08 1453.96 4693.89 1442.51 4669.92 1484 4671.34 1485.76 4671.34 1493.85 4645.53 1510.09 4648.74 1511.43 4648.74 1522.23 4621.48 1539.38 4622.49 1541.52 4624.84 1543.19 4624.84 1554.29 4622.59 1555.7 4622.59 1562.17 4632.04 1569.02 4632.04 1569.04 4649.7 1581.84 4647.85 1583.01 4647.85 1584.05 4645.4 1585.59 4645.4 1586.63 4642.95 1588.17 4642.95 1589.68 4643.35 1589.96 4643.35 1590.52 4661.8 1603.89 4663.28 1602.95 4663.28 1602.95 4665.52 1601.55 4665.52 1600.97 4665.71 1600.85 4665.71 1600.39 4665.72 1600.37 4665.72 1600.37 4667.97 1598.96 4667.97 1598.39 4668.15 1598.28 4668.15 1597.8 4668.17 1597.79 4668.17 1597.79 4670.08 1596.6 4679.94 1603.74 4679.94 1603.74 4701.59 1619.43 4794.78 1560.77 4794.78 1556.37 4795.99 1555.61 4795.99 1514.67"><title>Marian Hall</title></polygon>/>
    <polygon id="rosewilliamhall" points="4996.83 1985.44 4935.32 1718.41 4850.61 1727.31 4851.15 1693.3 4851.15 1689.6 4450.55 1686.72 4449.99 1721.71 4369.06 1711.21 4293.59 1976.46 4293.59 1980.19 4294.14 1980.26 4294.14 2045.73 4294.14 2046.81 4294.14 2049.27 4435.4 2067.61 4495.15 1857.61 4495.38 1857.61 4495.51 1857.79 4495.51 1857.61 4573.84 1858.18 4575.03 1865.11 4575.57 1866.92 4582.13 1866.97 4585.27 1883.37 4626.38 1883.66 4626.8 1885.71 4626.92 1886.07 4630.05 1903.56 4635.04 1903.59 4635.04 1903.59 4636.06 1903.6 4636.26 1903.6 4636.26 1903.6 4661.8 1903.79 4661.8 1903.79 4667.99 1903.83 4672.18 1883.99 4713.4 1884.29 4717.33 1867.94 4722.75 1867.97 4723.72 1866.04 4723.66 1865.88 4725.03 1859.68 4805.09 1860.25 4823.35 1939.47 4823.26 1939.5 4823.36 1939.5 4854.14 2073.05 4996.32 2058.09 4996.32 2055.64 4996.32 2054.53 4996.32 2043.39 4996.4 2043.38 4996.4 1989.08 4996.83 1989.03 4996.83 1985.44"><title>Rose William Hall</title></polygon>/>
    <polygon id="devinehall" points="6525.12 2886.84 6530.14 2883.63 6531.28 2881.19 6456.25 2826.84 6435.5 2831.72 6390.41 2799.05 6380.57 2805.25 6209.87 2912.7 6194.64 2922.29 6194.64 2922.29 6166.39 2940.07 6166.39 2940.07 6147.38 2952.04 6149.81 2953.79 6149.81 2975.14 6149.81 2976.2 6149.81 2987.09 6149.73 2987.13 6149.73 2987.13 6149.69 2987.16 6148.12 2987.05 6148.47 2987.93 6140.39 2993.02 6142.8 2993.21 6142.8 2993.23 6142.79 2993.23 6142.79 3005.47 6142.79 3007.04 6141.83 3007.64 6142.79 3008.34 6142.79 3013.43 6148.43 3017.51 6149.81 3018.51 6149.81 3023.21 6191.42 3053.36 6191.42 3053.42 6191.46 3053.39 6249.19 3095.2 6406.39 2996.24 6406.51 2996.33 6406.51 2996.17 6428.31 2982.44 6469.81 2956.32 6469.82 2956.31 6469.82 2956.31 6525.31 2921.39 6525.31 2901.06 6525.07 2900.46 6525.07 2886.89 6525.12 2886.84">      <title>Devine Hall</title></polygon>/>
    <polygon id="maguirecenter" points="6433.26 2592.56 6433.26 2564.43 6290.76 2461.19 6290.76 2407.79 6228.87 2362.96 6189.43 2387.78 6136.02 2349.09 6131.51 2351.93 5964.99 2231.3 5656.71 2425.35 5656.71 2522.62 5756.72 2595.07 5756.72 2624.01 5677.58 2566.69 5677.58 2561.21 5672.76 2557.73 5668.73 2560.27 5667.94 2559.7 5667.05 2560.26 5663.47 2557.68 5658.09 2561.07 5658.09 2565.9 5633.63 2581.3 5633.63 2578.04 5630.71 2575.93 5628.22 2577.5 5627.98 2577.41 5626.94 2576.66 5626.94 2577.01 5617.21 2573.2 5607.23 2589.67 5606.36 2589.04 5606.36 2591.26 5603.89 2592.81 5603.89 2600.01 5541.89 2639.05 5538.32 2636.46 5533.11 2639.74 5533.11 2645.64 5532.53 2646 5532.53 2651.98 5532.74 2652.13 5532.74 2653.78 5533.02 2653.99 5533.02 2681.55 5532.74 2681.74 5532.73 2689.47 5537.36 2692.82 5542.29 2689.71 5679.12 2788.84 5679.12 2795.48 5683.77 2798.85 5688.68 2795.76 5696.23 2801.23 5696.23 2829.42 5699.87 2832.06 5703.98 2829.47 5705.56 2828.48 5712.89 2833.79 5712.9 2834.5 5713.42 2834.17 5720.88 2839.58 5720.88 2840.35 5721.45 2839.99 5726.29 2843.49 5726.31 2844.17 5726.81 2843.87 5734.35 2849.34 5734.37 2850.03 5734.88 2849.72 5736.25 2850.71 5736.25 2858.41 5739.89 2861.05 5743.3 2858.91 5745.33 2860.38 5748.79 2858.19 5748.79 2855.45 5760.71 2847.94 5783.94 2864.77 5783.94 2871.4 5788.77 2874.91 5793.68 2871.82 5857.84 2918.3 5857.84 2924.95 5862.63 2928.42 5867.54 2925.33 5885.53 2938.36 5885.53 2945.04 5890.15 2948.39 5895.08 2945.29 5899.44 2948.44 5904.44 2945.29 5904.44 2939.4 6020.06 2866.61 6024.42 2869.77 6029.6 2866.51 6029.6 2860.61 6030.17 2860.25 6030.17 2852.51 6029.89 2852.31 6029.89 2824.74 6030.17 2824.56 6030.17 2822.9 6030.37 2822.77 6030.37 2816.79 6025.55 2813.3 6021.52 2815.84 5977.82 2784.18 5999.13 2770.76 6137.65 2871.11 6445.98 2677.02 6445.98 2601.77 6433.26 2592.56">      <title>Maguire Center</title></polygon>/>
    <polygon id="olearyhall" points="5506.65 2118.33 5505.42 2118.33 5506.5 2117.74 5458.73 2030.13 5410.47 2048.72 5410.91 2049.86 5410.26 2048.83 5385.89 2064.16 5346.58 2035.69 5346.58 2026.15 5348.54 2024.92 5348.54 2023.11 5348.55 2023.02 5349.12 2022.66 5338.92 2002.67 5328.69 2007.89 5317.73 2014.79 5299.1 2001.29 5299.1 1991.75 5301.05 1990.52 5301.05 1988.71 5301.06 1988.62 5301.63 1988.26 5291.43 1968.27 5281.2 1973.49 5270.24 1980.38 5262.51 1974.78 5262.51 1972.1 5259.03 1969.59 5221.39 1958 5216.73 1956.55 5174.8 2022.24 5174.8 2026.45 5177.14 2028.14 5177.14 2142.57 5193.75 2154.61 5183.01 2173.74 5183.59 2174.17 5183.6 2174.29 5183.6 2176.05 5185.5 2177.43 5185.5 2190.3 5171.83 2198.91 5166.31 2194.91 5166.31 2165.14 5169.87 2162.9 5168.57 2160.57 5168.91 2160.36 5168.91 2156.09 5142.24 2108.13 5142.24 2078.48 5142.72 2078.18 5142.72 2076.53 5142.24 2076.19 5142.24 2072.99 5142.62 2072.75 5142.62 2072.54 5143.29 2072.11 5142.44 2070.48 5131.72 2062.72 5131.72 2062.62 5131.65 2062.66 5125.08 2057.91 5120.15 2061 5118.73 2062.4 5119.66 2063.07 5119.66 2063.33 5120.04 2063.61 5120.04 2066.7 5119.57 2067 5119.57 2068.65 5120.04 2068.99 5120.04 2093.34 5094.24 2102.34 5089.93 2105.02 5089.93 2107.68 5067.62 2121.72 5067.62 2119.68 5063.58 2116.75 5013.36 2102.05 5012.23 2101.7 4961.26 2180.8 4961.26 2185.66 4962.22 2186.36 4962.22 2188.08 4950.52 2195.44 4942.29 2198.32 4937.98 2200.99 4937.98 2206.67 4941.19 2205.55 4941.19 2302.68 4940.88 2302.95 4940.88 2307.99 4941.19 2308.21 4941.19 2320.34 4951.28 2327.65 4951.28 2329.82 4951.58 2330.03 4951.58 2342.1 4979.18 2362.1 4979.18 2362.1 4980.79 2363.26 4997.1 2360.85 5008.84 2369.35 5008.84 2370.51 5013.55 2373.93 5015.6 2372.65 5040.86 2390.95 5040.86 2393.71 5045.57 2397.13 5047.61 2395.84 5063.24 2407.16 5059.94 2409.24 5059.94 2412.45 5060.3 2412.7 5060.3 2424.88 5067.09 2429.8 5067.34 2429.64 5093.39 2448.52 5093.39 2448.86 5100.19 2453.78 5114.85 2444.55 5140.14 2462.87 5140.14 2465.64 5144.85 2469.05 5146.9 2467.77 5172.24 2486.12 5172.24 2488.89 5176.95 2492.3 5177.81 2491.75 5183.76 2496.06 5239.3 2461.11 5258.36 2445.98 5264.15 2442.34 5283.36 2485.44 5318.46 2510.87 5321.05 2512.78 5350.5 2494.24 5349.84 2493.2 5351.07 2493.2 5351.07 2481.78 5351.37 2481.6 5351.37 2480.61 5376.34 2464.89 5376.34 2459.17 5400.47 2443.97 5400.47 2431.84 5400.77 2431.64 5400.77 2427.09 5400.72 2426.51 5400.47 2426.27 5400.47 2334.77 5404.02 2332.53 5403.18 2331.01 5403.89 2330.57 5403.89 2326.31 5393.14 2306.98 5399 2303.3 5410.01 2311.27 5434.93 2295.57 5450.1 2298.76 5469.78 2286.37 5469.13 2285.33 5470.35 2285.33 5470.35 2273.92 5470.64 2273.74 5470.64 2273.09 5491.76 2259.81 5491.76 2244.91 5506.65 2235.54 5506.65 2118.33"><title>O’Leary Hall</title></polygon>/>
    <polygon id="lyonscenter" class="cls-3" points="5283.36 2485.44 5264.15 2442.34 5258.36 2445.98 5239.3 2461.11 5214.01 2477.03 5206.29 2481.88 5206.19 2481.95 5205.94 2482.1 5205.95 2482.1 5150.8 2516.81 5132.73 2503.82 5132.74 2497.17 5132.6 2497.17 5132.6 2497.16 5132.74 2497.15 5132.61 2483.96 5133.3 2483.53 5131.68 2480.7 5129.38 2479.04 5127.71 2479.5 5119.12 2484.95 5103.26 2474.25 5102.4 2473.64 5100.75 2475.36 5101.63 2476.21 5100.54 2475.65 5084.22 2507.06 5072.81 2514.29 5074.05 2515.19 5074.05 2565.12 5044.72 2583.59 5043.63 2581.14 5037.85 2584.79 5007.15 2609.15 5020.64 2640.32 5062.69 2670.78 5062.69 2803.35 5072.79 2810.67 5075.44 2812.95 5075.44 2816.42 5317.82 2663.47 5318.43 2663.47 5318.46 2510.87 5283.36 2485.44"><title>Lyons Center for Natural and Health Sciences</title></polygon>/>
    <polygon id="berchmanshall" points="5486.58 2977.87 5478.11 2971.73 5536.48 2934.99 5536.48 2850.39 5540.14 2848.08 5537.32 2846.04 5537.32 2842.18 5533.21 2839.2 5533.24 2838.87 5532.98 2839.03 5506.68 2819.98 5506.68 2765.14 5509.41 2763.43 5428.1 2617.22 5396.02 2628.43 5391.62 2617.82 5382.79 2623.38 5372.52 2576.89 5370.13 2576.86 5354.47 2641.21 5349.25 2644.49 5349.33 2644.67 5349.24 2644.76 5346.89 2645.58 5075.44 2816.42 5075.44 2812.95 5072.79 2810.67 5062.69 2803.35 5062.69 2670.78 5020.64 2640.32 5005.07 2604.35 4942.38 2643.81 4942.38 2634.92 4942.99 2634.53 4941.65 2632.18 4939.85 2630.87 4938.44 2631.22 4932.54 2634.93 4921.51 2627.54 4920.66 2626.91 4919.27 2628.36 4920.16 2629.21 4919.07 2628.64 4907.58 2650.65 4899.15 2655.95 4900.3 2656.79 4900.3 2670.3 4782.51 2744.45 4782.48 2744.07 4776.41 2739.4 4783.1 2735.19 4781.75 2732.84 4779.96 2731.53 4778.55 2731.87 4772.65 2735.59 4761.61 2728.18 4760.76 2727.57 4759.37 2729.01 4760.26 2729.86 4759.17 2729.29 4747.69 2751.3 4739.26 2756.6 4740.41 2757.45 4740.41 2770.95 4737.03 2773.08 4736.26 2773.7 4694.47 2800.02 4694.29 2799.89 4694.29 2797.82 4695.02 2797.36 4694.43 2792.99 4691.85 2791.13 4661.06 2810.23 4660.49 2809.82 4658.5 2811.05 4656.9 2815.31 4654.73 2816.67 4654.73 2839.23 4653.32 2840.11 4653.32 2961.93 4663.31 2969.18 4666.42 2967.23 4666.42 2979.55 4693.16 2998.93 4708.52 2999.18 4708.52 3001.93 4718.72 3009.32 4722.24 3007.11 4724.25 3008.56 4728.6 3005.83 4883.03 3117.7 4883.03 3139.42 4890.76 3145.03 4889.79 3146.84 4889.66 3149.11 4889.68 3149.15 4889.68 3151.08 4890.5 3151.08 4890.57 3151.23 4889.78 3151.56 4890.57 3153.43 4892.16 3155.02 4949.34 3196.47 4951.5 3197.62 4954.17 3198.31 4957.11 3198.41 4959.68 3197.91 4962.07 3196.86 4962.2 3196.78 4972.19 3204.02 4978.77 3204.17 4991.41 3196.21 5152.76 3313.09 5152.76 3323.75 5162.96 3331.14 5165.96 3329.26 5165.96 3341.44 5192.7 3360.81 5208.16 3361.07 5208.16 3363.89 5218.16 3371.13 5221.69 3368.91 5223.8 3370.44 5237.48 3361.73 5222.42 3372.02 5222.42 3373.51 5227.34 3377.06 5227.34 3377.06 5232.93 3381.11 5233.01 3381 5233.61 3381.44 5323.44 3324.89 5322.78 3323.85 5323.44 3324.89 5341.77 3313.35 5341.77 3312.23 5357.38 3302.41 5358.13 3302.96 5360.57 3301.43 5360.57 3295.26 5352.31 3289.27 5539.36 3171.53 5539.36 3053.64 5504.85 2966.37 5486.58 2977.87"><title>Berchmans Hall</title></polygon>/>
    <path id="keatingquad" class="cls-4" d="M4593.18,2695.3l-.52-5.29v-.16l-1.22-5.24a.88.88,0,0,0,0-.15l-1.9-5.18-.07-.13-2.61-5.07a.54.54,0,0,0-.07-.13l-3.32-4.91a.44.44,0,0,0-.08-.11l-4-4.76-.09-.1-4.71-4.55-.09-.08-5.43-4.31-.09-.07-6.07-4-.09,0-6.49-3.53h-.08l-6.85-3.07h-.09l-7.16-2.59H4542l-7.49-2.13-7.71-1.64-7.87-1.17-8-.7-8-.21-8,.28-8,.76-6.48,1-.07-.1-.07-.09-.12-.11s0,0-.06-.05l-.48-.34a1.22,1.22,0,0,0-1.71.29l-.05.1-1.85.39-3.1.71-3.07.82-3,.88-3,.95-3,1-2.92,1.11-2.86,1.2-2.82,1.27-2.76,1.36-2.7,1.44L4445,2650l-28-20.26a1.23,1.23,0,0,0-1.72.28,1.16,1.16,0,0,0-.22.81l-204.78,128.69h0a1.37,1.37,0,0,0-.18.16l-.07.07-.07.08,0,.08-.05.08-.09.2v.06a1.31,1.31,0,0,0,0,.28h0v.82a1.22,1.22,0,0,0,.51,1l26.55,19.24,1.89,1.33-2.32,1.93h0l-6.85,5.81-.12.12-5.48,6.1a.81.81,0,0,0-.12.14l-4.26,6.42-.1.17-3,6.71a.68.68,0,0,0-.07.2l-1.25,4.72,5.29,3.82,1.56,1-1.56,1h0V2831l70.9,51.37,2.13.2h.11l10.26.09h.1l10.23-.73h.1l10.07-1.58h.1l9.79-2.42h.12l9.39-3.28.11-.05,8.19-3.81,24.65,17.86a1.17,1.17,0,0,0,.72.23h.28l5.74-1.34a1.22,1.22,0,0,0,.27-.09l.14-.08L4589,2758.15a1.23,1.23,0,0,0,.59-1.05v-.86a1.2,1.2,0,0,0-.05-.33,1.24,1.24,0,0,0-.42-1.45l-21.51-15.57,1.08-.74,2.39-1.78,2.27-1.84,2.15-1.88,2-1.94,1.9-2,1.78-2,1.64-2,1.53-2.09,1.42-2.12,1.3-2.14.59-1.1a1.54,1.54,0,0,0,.31,0h.09a1,1,0,0,0,.21-.1l.1-.06a.66.66,0,0,0,.15-.14l.09-.09,0,0a1.71,1.71,0,0,0,.13-.23h0l1.64-3.83,0-.14,1.55-5.2v-.16l.82-5.26a.43.43,0,0,0,0-.16l.17-5.33v-.86A.3.3,0,0,0,4593.18,2695.3Z"><title>Keating Quadrangle</title></path>/>
  </g>
</svg>
