<svg xmlns="http://www.w3.org/2000/svg" viewBox="939 511 42.401 58.4">
  <defs>
    <style>
      .cls-1 {
        fill: gray;
      }
    </style>
  </defs>
  <g id="Location_Pin_1_2_" transform="translate(939 511)">
    <g id="Group_1" data-name="Group 1">
      <path id="Path_1" data-name="Path 1" class="cls-1" d="M21.2,0A21.211,21.211,0,0,0,0,21.2C0,38.5,21.2,58.4,21.2,58.4S42.4,38.5,42.4,21.2A21.084,21.084,0,0,0,21.2,0Zm0,54.4S2.6,37.1,2.6,21.2a18.6,18.6,0,0,1,37.2.1C39.8,37.2,21.2,54.4,21.2,54.4Zm0-43.8A10.6,10.6,0,1,0,31.8,21.2,10.605,10.605,0,0,0,21.2,10.6Zm0,18.6a8,8,0,1,1,8-8A8.024,8.024,0,0,1,21.2,29.2Z"/>
    </g>
  </g>
</svg>
