<svg xmlns="http://www.w3.org/2000/svg" viewBox="938 518 44 44">
  <defs>
    <style>
      .cls-1 {
        fill: #666;
      }
    </style>
  </defs>
  <g id="Pencil_x40_2x.png_2_" transform="translate(938 518)">
    <g id="Group_1" data-name="Group 1">
      <path id="Path_1" data-name="Path 1" class="cls-1" d="M36,0a8.362,8.362,0,0,0-5.7,2.3l-27,27L0,44l14.7-3.3,27-27A8.362,8.362,0,0,0,44,8,8.024,8.024,0,0,0,36,0ZM13,38.8,6,40.4V38H3.6l1.6-7H13Zm2-1.3V30a.945.945,0,0,0-1-1H6.5L28.1,7.5,36.6,16ZM40.2,12.2l-2.3,2.3L29.4,6l2.3-2.3A5.94,5.94,0,0,1,41.9,7.9,5.308,5.308,0,0,1,40.2,12.2Z"/>
    </g>
  </g>
</svg>
