<svg xmlns="http://www.w3.org/2000/svg" viewBox="559 286 22 22">
  <defs>
    <style>
      .cls-1 {
        fill: #fff;
      }
    </style>
  </defs>
  <g id="Group_8" data-name="Group 8" transform="translate(559 286)">
    <g id="Group_6" data-name="Group 6">
      <path id="Path_3" data-name="Path 3" class="cls-1" d="M21,22a.908.908,0,0,1-.7-.3L.3,1.7A.967.967,0,0,1,.3.3.967.967,0,0,1,1.7.3l20,20a.967.967,0,0,1,0,1.4A.908.908,0,0,1,21,22Z"/>
    </g>
    <g id="Group_7" data-name="Group 7">
      <path id="Path_4" data-name="Path 4" class="cls-1" d="M1,22a.908.908,0,0,1-.7-.3.967.967,0,0,1,0-1.4l20-20a.967.967,0,0,1,1.4,0,.967.967,0,0,1,0,1.4l-20,20A.908.908,0,0,1,1,22Z"/>
    </g>
  </g>
</svg>
