<svg xmlns="http://www.w3.org/2000/svg" viewBox="450 420 21 21">
  <defs>
    <style>
      .cls-1 {
        fill: gray;
      }

      .cls-2 {
        fill: #828282;
      }
    </style>
  </defs>
  <g id="Group_5" data-name="Group 5" transform="translate(450 420)">
    <g id="Group_2" data-name="Group 2">
      <g id="Group_1" data-name="Group 1">
        <path id="Path_1" data-name="Path 1" class="cls-1" d="M20.4,19.7l-4.8-4.8a8.345,8.345,0,0,0,2.2-5.8,8.6,8.6,0,1,0-8.6,8.6A8.714,8.714,0,0,0,15,15.5l4.8,4.8a.367.367,0,0,0,.3.1.472.472,0,0,0,.5-.5A.215.215,0,0,1,20.4,19.7ZM9.1,16.9a7.7,7.7,0,1,1,7.7-7.7A7.7,7.7,0,0,1,9.1,16.9Z"/>
      </g>
    </g>
    <g id="Group_4" data-name="Group 4">
      <g id="Group_3" data-name="Group 3">
        <path id="Path_2" data-name="Path 2" class="cls-2" d="M20,21a.908.908,0,0,1-.7-.3l-4.5-4.5a9,9,0,0,1-5.7,2,9.1,9.1,0,1,1,9.1-9.1,9,9,0,0,1-2,5.7l4.5,4.5a.908.908,0,0,1,.3.7A.945.945,0,0,1,20,21ZM9.1,1.9a7.2,7.2,0,1,0,7.2,7.2A7.17,7.17,0,0,0,9.1,1.9Z"/>
      </g>
    </g>
  </g>
</svg>
