<svg xmlns="http://www.w3.org/2000/svg" viewBox="945 513 31.7 54.3">
  <defs>
    <style>
      .cls-1 {
        fill: gray;
      }
    </style>
  </defs>
  <g id="Group_2" data-name="Group 2" transform="translate(945 513)">
    <g id="Group_1" data-name="Group 1">
      <path id="Path_1" data-name="Path 1" class="cls-1" d="M5.6,36.1c2.5,2.4,5.7,5.1,9.8,5.1,4.7,0,7.3-1.9,7.3-5.3,0-3.8-4.8-5-9.6-6.8C8,27.2,2.9,24.6,2.9,17.7c0-7.2,5-11.2,11.7-11.8V0h5.1V6.1a24.1,24.1,0,0,1,10.7,4.6l-4.9,6c-2.5-2-5.4-3.7-8.9-3.7-2.5,0-5.2,1.4-5.2,4.3s4.6,4,9.5,5.8c5.2,2,10.8,4.8,10.8,12.2,0,7.6-5.8,11.8-12.4,12.8v6.2H14.2v-6C8.6,48,4.2,45.6,0,41.5Z"/>
    </g>
  </g>
</svg>
