<?xml version="1.0" encoding="utf-8"?>
<!-- Generator: Adobe Illustrator 21.0.2, SVG Export Plug-In . SVG Version: 6.00 Build 0)  -->
<svg version="1.1" id="Layer_1" xmlns="http://www.w3.org/2000/svg" xmlns:xlink="http://www.w3.org/1999/xlink" x="0px" y="0px"
	 viewBox="0 0 149 64" style="enable-background:new 0 0 149 64;" xml:space="preserve" preserveAspectRatio="xMidYMid meet">
<style type="text/css">
	.st0{fill:#115438;}
	.st1{fill:none;stroke:#115438;stroke-width:0.5937;}
	.st2{fill:#FFFFFF;}
</style>
<g>
	<rect x="0.3" y="0" class="st0" width="148" height="41.7"/>
	<rect x="0.7" y="38.8" class="st1" width="147.3" height="24.4"/>
	<path class="st2" d="M12.3,22.6v8.5h19.8c0.5,0,0.8-0.1,1-0.3c0.2-0.2,0.4-0.6,0.6-1.1h0.7v8h-0.7c-0.2-0.5-0.3-0.9-0.6-1.1
		c-0.2-0.2-0.6-0.3-1-0.3h-28v-0.7c0.5-0.1,0.9-0.3,1.1-0.6c0.2-0.2,0.3-0.6,0.3-1.1V7.7c0-0.5-0.1-0.8-0.3-1.1
		C5.1,6.4,4.7,6.2,4.2,6V5.3h27.5c0.5,0,0.8-0.1,1-0.3c0.2-0.2,0.4-0.6,0.6-1.1H34v8h-0.7c-0.2-0.5-0.3-0.9-0.6-1.1
		c-0.2-0.2-0.6-0.3-1-0.3H12.3v7.3h12.5c0.5,0,0.8-0.1,1-0.3c0.2-0.2,0.4-0.6,0.6-1.1h0.7v7.8h-0.7c-0.2-0.5-0.3-0.9-0.6-1.1
		c-0.2-0.2-0.6-0.3-1-0.3H12.3z"/>
	<path class="st2" d="M47.5,31.1h19c0.5,0,0.8-0.1,1.1-0.3c0.2-0.2,0.4-0.6,0.6-1.1h0.7v8h-0.7c-0.2-0.5-0.3-0.9-0.6-1.1
		c-0.2-0.2-0.6-0.3-1.1-0.3H39.3v-0.7c0.5-0.1,0.9-0.3,1.1-0.6c0.2-0.2,0.3-0.6,0.3-1.1V7.7c0-0.5-0.1-0.8-0.3-1.1
		c-0.2-0.2-0.6-0.4-1.1-0.6V5.3H49V6c-0.5,0.1-0.9,0.3-1.1,0.6c-0.2,0.2-0.3,0.6-0.3,1.1V31.1z"/>
	<path class="st2" d="M91,36.1L79.7,14.8v18.9c0,0.5,0.1,0.8,0.3,1.1c0.2,0.2,0.6,0.4,1.1,0.6v0.7H72v-0.7c0.5-0.1,0.9-0.3,1.1-0.6
		c0.2-0.2,0.3-0.6,0.3-1.1V7.7c0-0.5-0.1-0.8-0.3-1C73,6.4,72.6,6.2,72,6V5.3h11.9V6c-0.7,0.2-1.1,0.6-1.1,1.2c0,0.3,0.1,0.6,0.3,1
		l8.4,15.9l8.5-15.7c0.4-0.7,0.6-1.2,0.6-1.5c0-0.6-0.4-1-1.1-1V5.3h11.7V6c-0.5,0.2-0.9,0.3-1.1,0.6c-0.2,0.2-0.3,0.6-0.3,1v26.1
		c0,0.5,0.1,0.8,0.3,1.1c0.2,0.2,0.6,0.4,1.1,0.6v0.7h-9.6v-0.7c0.5-0.1,0.9-0.3,1.1-0.6c0.2-0.2,0.3-0.6,0.3-1.1V14.8L91,36.1z"/>
	<path class="st2" d="M143.6,7.9l-3.7,7.3l-0.6-0.4c0-0.1,0-0.3,0-0.4c0-0.5-0.4-1.1-1.3-1.7c-2.7-1.9-5.8-2.8-9.4-2.8
		c-1.6,0-3,0.2-4.2,0.6c-0.9,0.3-1.6,0.8-2.2,1.4c-0.5,0.6-0.8,1.3-0.8,2c0,1.2,0.7,1.9,2.1,2.4c0.7,0.2,2.3,0.4,4.7,0.7l3.5,0.4
		c2.1,0.2,3.8,0.5,5.1,0.9c1.3,0.4,2.5,0.9,3.5,1.6c1,0.7,1.8,1.7,2.4,2.9c0.6,1.2,0.9,2.5,0.9,3.9c0,2.2-0.7,4.1-2.1,5.8
		c-1.3,1.5-3.2,2.7-5.9,3.4c-2,0.6-4.1,0.8-6.4,0.8c-4.1,0-8.1-1-12.1-2.9c-0.8-0.4-1.3-0.6-1.5-0.6c-0.2,0-0.5,0.2-0.9,0.5
		l-0.7-0.3l3.3-7.6l0.7,0.3v0.3c0,0.7,0.3,1.3,1,1.9c1,0.9,2.5,1.6,4.5,2.3c2,0.6,4,0.9,5.8,0.9c2,0,3.7-0.3,5.1-1
		c0.8-0.4,1.4-0.9,1.9-1.5c0.5-0.6,0.7-1.3,0.7-2c0-1-0.6-1.8-1.6-2.2c-0.8-0.3-2.3-0.6-4.7-0.8l-3.5-0.4c-2.3-0.2-4-0.5-4.9-0.7
		c-1-0.2-1.9-0.6-2.9-1.1c-1.4-0.7-2.4-1.7-3.2-3.1c-0.7-1.2-1.1-2.6-1.1-4.2c0-2.6,0.9-4.8,2.7-6.5c2.3-2.2,5.9-3.4,10.6-3.4
		c2,0,3.8,0.2,5.5,0.6c1.7,0.4,3.8,1.1,6.4,2.2c0.9,0.3,1.4,0.5,1.6,0.5c0.3,0,0.7-0.2,1.1-0.5L143.6,7.9z"/>
	<path class="st0" d="M18.8,54.4l1.9,2.8l-0.3,0.2c-0.2-0.2-0.3-0.3-0.5-0.3c-0.1,0-0.4,0.2-1,0.5c-1.1,0.6-2.1,1.1-2.8,1.3
		c-0.8,0.2-1.7,0.3-2.7,0.3c-2.1,0-3.9-0.5-5.2-1.5c-0.8-0.6-1.4-1.3-1.9-2.2c-0.5-1-0.8-2.1-0.8-3.3c0-1.6,0.5-3,1.4-4.2
		c1.4-1.8,3.6-2.7,6.5-2.7c1.1,0,2,0.1,2.7,0.3c0.8,0.2,1.7,0.7,2.8,1.3c0.5,0.3,0.9,0.5,1,0.5c0.1,0,0.3-0.1,0.5-0.3l0.3,0.2
		l-1.9,2.8L18.6,50c0-0.1,0-0.2,0-0.3c0-0.2-0.1-0.4-0.2-0.5c-0.2-0.2-0.5-0.4-0.9-0.6c-1.2-0.7-2.4-1-3.7-1c-1.5,0-2.8,0.4-3.7,1.1
		c-1.1,0.9-1.6,2.1-1.6,3.5c0,1.4,0.5,2.6,1.6,3.5c0.9,0.8,2.1,1.1,3.7,1.1c1.3,0,2.5-0.3,3.7-1c0.4-0.2,0.7-0.4,0.9-0.6
		c0.2-0.2,0.2-0.3,0.2-0.5c0-0.1,0-0.2,0-0.3L18.8,54.4z"/>
	<path class="st0" d="M38,48.8c-0.9-0.7-1.9-1.1-3.2-1.1c-1.3,0-2.3,0.4-3.2,1.1c-1,0.9-1.5,2.1-1.5,3.5c0,1.5,0.5,2.6,1.5,3.5
		c0.9,0.8,1.9,1.1,3.2,1.1c1.3,0,2.4-0.4,3.2-1.1c0.5-0.4,0.9-1,1.2-1.7c0.2-0.6,0.4-1.2,0.4-1.8C39.5,50.8,39,49.6,38,48.8
		 M28.1,48.6c1.3-2.1,3.5-3.2,6.7-3.3c2.3,0,4.2,0.6,5.6,1.9c1.4,1.3,2.2,3,2.2,5.1c0,1.3-0.3,2.5-1,3.6c-1.4,2.2-3.6,3.3-6.7,3.3
		c-2.3,0-4.2-0.6-5.5-1.9c-0.7-0.7-1.3-1.5-1.7-2.4c-0.3-0.8-0.5-1.7-0.5-2.6C27.1,50.9,27.4,49.7,28.1,48.6"/>
	<path class="st0" d="M53.3,56.8h8.2c0.2,0,0.4,0,0.5-0.1c0.1-0.1,0.2-0.3,0.3-0.5h0.3v3.5h-0.3c-0.1-0.2-0.2-0.4-0.3-0.5
		C61.9,59,61.7,59,61.5,59H49.7v-0.3c0.2-0.1,0.4-0.2,0.5-0.3c0.1-0.1,0.1-0.3,0.1-0.5V46.6c0-0.2,0-0.4-0.1-0.5
		c-0.1-0.1-0.3-0.2-0.5-0.3v-0.3h4.2v0.3c-0.2,0.1-0.4,0.1-0.5,0.2c-0.1,0.1-0.1,0.3-0.1,0.5V56.8z"/>
	<path class="st0" d="M72.6,56.8h8.2c0.2,0,0.4,0,0.5-0.1c0.1-0.1,0.2-0.3,0.3-0.5h0.3v3.5h-0.3c-0.1-0.2-0.2-0.4-0.3-0.5
		C81.2,59,81,59,80.8,59H69v-0.3c0.2-0.1,0.4-0.2,0.5-0.3c0.1-0.1,0.1-0.3,0.1-0.5V46.6c0-0.2,0-0.4-0.1-0.5
		C69.4,46,69.3,46,69,45.9v-0.3h4.2v0.3c-0.2,0.1-0.4,0.1-0.5,0.2c-0.1,0.1-0.1,0.3-0.1,0.5V56.8z"/>
	<path class="st0" d="M91.9,53.1v3.7h8.6c0.2,0,0.3,0,0.5-0.1c0.1-0.1,0.2-0.3,0.3-0.5h0.3v3.5h-0.3c-0.1-0.2-0.2-0.4-0.3-0.5
		c-0.1-0.1-0.3-0.1-0.5-0.1H88.4v-0.3c0.2-0.1,0.4-0.2,0.5-0.3c0.1-0.1,0.1-0.3,0.1-0.5V46.6c0-0.2,0-0.4-0.1-0.5
		c-0.1-0.1-0.3-0.2-0.5-0.3v-0.3h11.9c0.2,0,0.3,0,0.5-0.1c0.1-0.1,0.2-0.3,0.3-0.5h0.3v3.5H101c-0.1-0.2-0.2-0.4-0.3-0.5
		c-0.1-0.1-0.3-0.1-0.5-0.1h-8.4V51h5.4c0.2,0,0.3,0,0.5-0.1c0.1-0.1,0.2-0.3,0.3-0.5h0.3v3.4h-0.3c-0.1-0.2-0.2-0.4-0.3-0.5
		c-0.1-0.1-0.3-0.1-0.5-0.1H91.9z"/>
	<path class="st0" d="M120.7,54.2h-3.3c-0.2,0-0.4,0-0.5,0.1c-0.1,0.1-0.2,0.3-0.3,0.5h-0.3v-3.1h0.3c0.1,0.2,0.1,0.4,0.3,0.5
		c0.1,0.1,0.3,0.1,0.5,0.1h6.4v0.3c-0.2,0.1-0.4,0.2-0.5,0.3c-0.1,0.1-0.1,0.3-0.1,0.5v2.7c0,0.2,0,0.4,0.1,0.5
		c0.1,0.1,0.3,0.2,0.5,0.3V57c-2.5,1.5-5,2.2-7.4,2.2c-2.2,0-3.9-0.5-5.3-1.5c-1.7-1.3-2.6-3.1-2.6-5.4c0-2.1,0.8-3.9,2.3-5.1
		c1.5-1.2,3.4-1.8,5.8-1.8c0.8,0,1.5,0.1,2.2,0.2c0.7,0.1,1.4,0.4,2.3,0.7c0.4,0.2,0.8,0.3,1,0.3c0.1,0,0.3-0.1,0.5-0.2l0.3,0.1
		l-1.6,3.2l-0.3-0.1c0-0.2,0-0.4-0.1-0.5c-0.1-0.1-0.2-0.2-0.4-0.3c-0.4-0.3-1-0.6-1.8-0.8c-0.8-0.2-1.5-0.3-2.2-0.3
		c-1.4,0-2.6,0.4-3.5,1.2c-1,0.9-1.6,2.1-1.6,3.5c0,1.4,0.5,2.6,1.5,3.4c0.9,0.8,2.2,1.2,3.7,1.2c0.7,0,1.5-0.1,2.2-0.3
		c0.7-0.2,1.3-0.4,1.9-0.7V54.2z"/>
	<path class="st0" d="M134.6,53.1v3.7h8.6c0.2,0,0.3,0,0.5-0.1c0.1-0.1,0.2-0.3,0.3-0.5h0.3v3.5H144c-0.1-0.2-0.2-0.4-0.3-0.5
		c-0.1-0.1-0.3-0.1-0.5-0.1h-12.2v-0.3c0.2-0.1,0.4-0.2,0.5-0.3c0.1-0.1,0.1-0.3,0.1-0.5V46.6c0-0.2,0-0.4-0.1-0.5
		c-0.1-0.1-0.3-0.2-0.5-0.3v-0.3H143c0.2,0,0.3,0,0.5-0.1c0.1-0.1,0.2-0.3,0.3-0.5h0.3v3.5h-0.3c-0.1-0.2-0.2-0.4-0.3-0.5
		c-0.1-0.1-0.3-0.1-0.5-0.1h-8.4V51h5.4c0.2,0,0.3,0,0.5-0.1c0.1-0.1,0.2-0.3,0.3-0.5h0.3v3.4h-0.3c-0.1-0.2-0.2-0.4-0.3-0.5
		c-0.1-0.1-0.3-0.1-0.5-0.1H134.6z"/>
</g>
</svg>
